<svg width="3114" height="2268" viewBox="0 0 3114 2268" fill="none" xmlns="http://www.w3.org/2000/svg">
<g filter="url(#filter0_i_22_102)">
<path d="M1690 1923.22C1690 1833.55 1690 1788.71 1716.76 1760.86C1743.53 1733 1786.6 1733 1872.75 1733H2021.24C2107.4 1733 2150.47 1733 2177.24 1760.86C2204 1788.71 2204 1833.55 2204 1923.22V2077.78C2204 2167.45 2204 2212.29 2177.24 2240.14C2150.47 2268 2107.4 2268 2021.24 2268H1872.75C1786.6 2268 1743.53 2268 1716.76 2240.14C1690 2212.29 1690 2167.45 1690 2077.78V1923.22Z" fill="white"/>
</g>
<g filter="url(#filter1_i_22_102)">
<path d="M13.853 628.394C13.853 540.486 13.853 496.532 40.595 469.224C67.337 441.914 110.377 441.914 196.459 441.914H344.827C430.908 441.914 473.946 441.914 500.689 469.224C527.432 496.532 527.432 540.486 527.432 628.394V779.909C527.432 867.817 527.432 911.771 500.689 939.078C473.946 966.389 430.908 966.389 344.827 966.389H196.459C110.377 966.389 67.337 966.389 40.595 939.078C13.853 911.771 13.853 867.817 13.853 779.909V628.394Z" fill="white"/>
<path d="M40.5952 939.078L38.5777 941.141L40.5952 939.078ZM500.689 939.078L498.672 937.018L500.689 939.078ZM500.689 469.224L502.706 467.161L500.689 469.224ZM196.459 444.827H344.827V439H196.459V444.827ZM524.579 628.394V779.909H530.286V628.394H524.579ZM344.827 963.475H196.459V969.302H344.827V963.475ZM16.7064 779.909V628.394H11V779.909H16.7064ZM196.459 963.475C153.338 963.475 121.284 963.469 96.6551 960.086C72.1084 956.718 55.3652 950.043 42.6127 937.018L38.5777 941.141C52.5673 955.427 70.7151 962.406 95.8947 965.864C120.992 969.308 153.499 969.302 196.459 969.302V963.475ZM11 779.909C11 823.781 10.994 856.977 14.3682 882.607C17.7536 908.321 24.5881 926.852 38.5777 941.141L42.6127 937.018C29.8603 923.997 23.3239 906.899 20.0239 881.829C16.7127 856.68 16.7064 823.944 16.7064 779.909H11ZM524.579 779.909C524.579 823.944 524.573 856.68 521.261 881.829C517.96 906.899 511.423 923.997 498.672 937.018L502.706 941.141C516.696 926.852 523.532 908.321 526.916 882.607C530.291 856.977 530.286 823.781 530.286 779.909H524.579ZM344.827 969.302C387.785 969.302 420.291 969.308 445.391 965.864C470.571 962.406 488.717 955.427 502.706 941.141L498.672 937.018C485.918 950.043 469.175 956.718 444.629 960.086C420 963.469 387.947 963.475 344.827 963.475V969.302ZM344.827 444.827C387.947 444.827 420 444.833 444.629 448.216C469.175 451.584 485.918 458.26 498.672 471.284L502.706 467.161C488.717 452.875 470.571 445.897 445.391 442.438C420.291 438.994 387.785 439 344.827 439V444.827ZM530.286 628.394C530.286 584.521 530.291 551.325 526.916 525.696C523.532 499.982 516.696 481.45 502.706 467.161L498.672 471.284C511.423 484.306 517.96 501.404 521.261 526.474C524.573 551.622 524.579 584.358 524.579 628.394H530.286ZM196.459 439C153.499 439 120.992 438.994 95.8947 442.438C70.7154 445.897 52.5673 452.875 38.5777 467.161L42.6127 471.284C55.3652 458.26 72.1084 451.584 96.6551 448.216C121.284 444.833 153.338 444.827 196.459 444.827V439ZM16.7064 628.394C16.7064 584.358 16.7127 551.622 20.0239 526.474C23.3239 501.404 29.8603 484.306 42.6127 471.284L38.5777 467.161C24.5881 481.45 17.7536 499.982 14.3682 525.696C10.994 551.325 11 584.521 11 628.394H16.7064Z" fill="#D9D9D9"/>
</g>
<path d="M212.724 860.445C238.972 860.445 260.277 838.688 260.277 811.881V763.321H212.724C186.474 763.321 165.17 785.075 165.17 811.881C165.17 838.688 186.474 860.445 212.724 860.445Z" fill="#0ACF83"/>
<path d="M165.17 714.757C165.17 687.951 186.474 666.194 212.724 666.194H260.277V763.321H212.724C186.474 763.321 165.17 741.564 165.17 714.757Z" fill="#A259FF"/>
<path d="M165.17 617.633C165.17 590.827 186.474 569.07 212.724 569.07H260.277V666.194H212.724C186.474 666.194 165.17 644.44 165.17 617.633Z" fill="#F24E1E"/>
<path d="M260.277 569.07H307.831C334.081 569.07 355.383 590.827 355.383 617.633C355.383 644.44 334.081 666.194 307.831 666.194H260.277V569.07Z" fill="#FF7262"/>
<path d="M355.383 714.757C355.383 741.564 334.081 763.321 307.831 763.321C281.582 763.321 260.277 741.564 260.277 714.757C260.277 687.951 281.582 666.194 307.831 666.194C334.081 666.194 355.383 687.951 355.383 714.757Z" fill="#1ABCFE"/>
<g filter="url(#filter2_i_22_102)">
<path d="M1437.08 465.358C1437.08 377.45 1437.08 333.496 1463.82 306.185C1490.56 278.878 1533.6 278.878 1619.68 278.878H1768.05C1854.13 278.878 1897.17 278.878 1923.91 306.185C1950.66 333.496 1950.66 377.45 1950.66 465.358V616.873C1950.66 704.781 1950.66 748.734 1923.91 776.042C1897.17 803.353 1854.13 803.353 1768.05 803.353H1619.68C1533.6 803.353 1490.56 803.353 1463.82 776.042C1437.08 748.734 1437.08 704.781 1437.08 616.873V465.358Z" fill="white"/>
<path d="M1463.82 776.042L1461.8 778.102L1463.82 776.042ZM1923.91 776.042L1921.9 773.982L1923.91 776.042ZM1923.91 306.185L1925.93 304.125L1923.91 306.185ZM1619.68 281.791H1768.05V275.964H1619.68V281.791ZM1947.8 465.358V616.873H1953.51V465.358H1947.8ZM1768.05 800.439H1619.68V806.266H1768.05V800.439ZM1439.93 616.873V465.358H1434.22V616.873H1439.93ZM1619.68 800.439C1576.56 800.439 1544.51 800.433 1519.88 797.05C1495.33 793.679 1478.59 787.006 1465.84 773.982L1461.8 778.102C1475.79 792.388 1493.94 799.37 1519.12 802.825C1544.22 806.272 1576.72 806.266 1619.68 806.266V800.439ZM1434.22 616.873C1434.22 660.742 1434.22 693.941 1437.59 719.571C1440.98 745.284 1447.81 763.816 1461.8 778.102L1465.84 773.982C1453.08 760.96 1446.55 743.86 1443.25 718.793C1439.94 693.641 1439.93 660.908 1439.93 616.873H1434.22ZM1947.8 616.873C1947.8 660.908 1947.8 693.641 1944.48 718.793C1941.19 743.86 1934.65 760.96 1921.9 773.982L1925.93 778.102C1939.92 763.816 1946.76 745.284 1950.14 719.571C1953.51 693.941 1953.51 660.742 1953.51 616.873H1947.8ZM1768.05 806.266C1811.01 806.266 1843.52 806.272 1868.61 802.825C1893.79 799.37 1911.94 792.388 1925.93 778.102L1921.9 773.982C1909.14 787.006 1892.4 793.679 1867.85 797.05C1843.22 800.433 1811.17 800.439 1768.05 800.439V806.266ZM1768.05 281.791C1811.17 281.791 1843.22 281.797 1867.85 285.177C1892.4 288.548 1909.14 295.224 1921.9 308.245L1925.93 304.125C1911.94 289.839 1893.79 282.861 1868.61 279.402C1843.52 275.958 1811.01 275.964 1768.05 275.964V281.791ZM1953.51 465.358C1953.51 421.485 1953.51 388.289 1950.14 362.66C1946.76 336.946 1939.92 318.411 1925.93 304.125L1921.9 308.245C1934.65 321.27 1941.19 338.368 1944.48 363.435C1947.8 388.586 1947.8 421.322 1947.8 465.358H1953.51ZM1619.68 275.964C1576.72 275.964 1544.22 275.958 1519.12 279.402C1493.94 282.861 1475.79 289.839 1461.8 304.125L1465.84 308.245C1478.59 295.224 1495.33 288.548 1519.88 285.177C1544.51 281.797 1576.56 281.791 1619.68 281.791V275.964ZM1439.93 465.358C1439.93 421.322 1439.94 388.586 1443.25 363.435C1446.55 338.368 1453.08 321.27 1465.84 308.245L1461.8 304.125C1447.81 318.411 1440.98 336.946 1437.59 362.66C1434.22 388.289 1434.22 421.485 1434.22 465.358H1439.93Z" fill="#D9D9D9"/>
</g>
<path d="M1692.59 397.84C1613.81 397.84 1549.93 463.068 1549.93 543.528C1549.93 607.898 1590.81 662.508 1647.49 681.774C1654.62 683.123 1657.24 678.612 1657.24 674.763C1657.24 671.29 1657.1 659.813 1657.04 647.639C1617.35 656.453 1608.98 630.451 1608.98 630.451C1602.49 613.612 1593.14 609.134 1593.14 609.134C1580.2 600.092 1594.12 600.276 1594.12 600.276C1608.44 601.305 1615.98 615.291 1615.98 615.291C1628.71 637.563 1649.36 631.124 1657.5 627.403C1658.78 617.986 1662.48 611.558 1666.56 607.922C1634.87 604.236 1601.56 591.745 1601.56 535.92C1601.56 520.017 1607.13 507.019 1616.26 496.815C1614.78 493.146 1609.89 478.33 1617.64 458.26C1617.64 458.26 1629.62 454.347 1656.88 473.196C1668.26 469.964 1680.47 468.347 1692.59 468.292C1704.71 468.347 1716.93 469.964 1728.33 473.196C1755.56 454.347 1767.52 458.26 1767.52 458.26C1775.29 478.33 1770.4 493.146 1768.92 496.815C1778.07 507.019 1783.6 520.014 1783.6 535.92C1783.6 591.876 1750.23 604.198 1718.46 607.805C1723.58 612.324 1728.14 621.191 1728.14 634.784C1728.14 654.277 1727.97 669.964 1727.97 674.763C1727.97 678.641 1730.54 683.184 1737.77 681.753C1794.42 662.467 1835.25 607.878 1835.25 543.528C1835.25 463.068 1771.38 397.84 1692.59 397.84Z" fill="#161614"/>
<path d="M1603.36 605.378C1603.05 606.1 1601.93 606.319 1600.92 605.821C1599.88 605.346 1599.3 604.358 1599.63 603.632C1599.94 602.887 1601.06 602.68 1602.09 603.181C1603.13 603.653 1603.72 604.649 1603.36 605.378ZM1610.38 611.771C1609.7 612.414 1608.37 612.117 1607.46 611.097C1606.53 610.083 1606.36 608.726 1607.05 608.07C1607.75 607.426 1609.04 607.726 1609.97 608.743C1610.91 609.772 1611.09 611.121 1610.38 611.773V611.771ZM1615.19 619.952C1614.32 620.573 1612.89 619.99 1612 618.697C1611.13 617.4 1611.13 615.847 1612.02 615.223C1612.91 614.603 1614.32 615.162 1615.21 616.447C1616.09 617.764 1616.09 619.317 1615.19 619.952H1615.19ZM1623.33 629.428C1622.55 630.308 1620.89 630.072 1619.67 628.871C1618.42 627.697 1618.07 626.028 1618.86 625.148C1619.65 624.265 1621.32 624.512 1622.55 625.704C1623.79 626.878 1624.17 628.557 1623.33 629.428ZM1633.86 632.627C1633.51 633.766 1631.91 634.285 1630.29 633.801C1628.68 633.303 1627.62 631.966 1627.95 630.812C1628.28 629.664 1629.89 629.125 1631.52 629.643C1633.13 630.139 1634.19 631.467 1633.86 632.627ZM1645.83 633.982C1645.87 635.185 1644.5 636.182 1642.8 636.202C1641.1 636.24 1639.72 635.27 1639.7 634.087C1639.7 632.875 1641.04 631.887 1642.75 631.858C1644.44 631.823 1645.83 632.79 1645.83 633.982ZM1657.59 633.522C1657.8 634.696 1656.62 635.899 1654.94 636.22C1653.28 636.529 1651.75 635.806 1651.53 634.643C1651.33 633.44 1652.53 632.237 1654.18 631.925C1655.87 631.625 1657.38 632.33 1657.59 633.522Z" fill="#161614"/>
<g filter="url(#filter3_i_22_102)">
<path d="M719.049 1138.77C719.049 1050.86 719.049 1006.9 745.792 979.593C772.533 952.285 815.573 952.285 901.655 952.285H1050.02C1136.1 952.285 1179.14 952.285 1205.88 979.593C1232.63 1006.9 1232.63 1050.86 1232.63 1138.77V1290.28C1232.63 1378.19 1232.63 1422.14 1205.88 1449.45C1179.14 1476.76 1136.1 1476.76 1050.02 1476.76H901.655C815.573 1476.76 772.533 1476.76 745.792 1449.45C719.049 1422.14 719.049 1378.19 719.049 1290.28V1138.77Z" fill="white"/>
<path d="M745.793 1449.45L743.773 1451.51L745.793 1449.45ZM1205.88 1449.45L1203.87 1447.39L1205.88 1449.45ZM1205.88 979.593L1207.9 977.533L1205.88 979.593ZM901.655 955.199H1050.02V949.371H901.655V955.199ZM1229.77 1138.77V1290.28H1235.48V1138.77H1229.77ZM1050.02 1473.85H901.655V1479.67H1050.02V1473.85ZM721.903 1290.28V1138.77H716.196V1290.28H721.903ZM901.655 1473.85C858.534 1473.85 826.479 1473.84 801.853 1470.46C777.304 1467.09 760.561 1460.41 747.81 1447.39L743.773 1451.51C757.765 1465.8 775.911 1472.78 801.091 1476.23C826.188 1479.68 858.694 1479.67 901.655 1479.67V1473.85ZM716.196 1290.28C716.196 1334.15 716.191 1367.35 719.563 1392.98C722.95 1418.69 729.783 1437.22 743.773 1451.51L747.81 1447.39C735.056 1434.37 728.519 1417.27 725.221 1392.2C721.908 1367.05 721.903 1334.32 721.903 1290.28H716.196ZM1229.77 1290.28C1229.77 1334.32 1229.77 1367.05 1226.46 1392.2C1223.16 1417.27 1216.62 1434.37 1203.87 1447.39L1207.9 1451.51C1221.89 1437.22 1228.73 1418.69 1232.11 1392.98C1235.49 1367.35 1235.48 1334.15 1235.48 1290.28H1229.77ZM1050.02 1479.67C1092.98 1479.67 1125.49 1479.68 1150.59 1476.23C1175.77 1472.78 1193.91 1465.8 1207.9 1451.51L1203.87 1447.39C1191.12 1460.41 1174.37 1467.09 1149.82 1470.46C1125.2 1473.84 1093.14 1473.85 1050.02 1473.85V1479.67ZM1050.02 955.199C1093.14 955.199 1125.2 955.205 1149.82 958.588C1174.37 961.956 1191.12 968.631 1203.87 981.656L1207.9 977.533C1193.91 963.247 1175.77 956.268 1150.59 952.81C1125.49 949.365 1092.98 949.371 1050.02 949.371V955.199ZM1235.48 1138.77C1235.48 1094.89 1235.49 1061.7 1232.11 1036.07C1228.73 1010.35 1221.89 991.819 1207.9 977.533L1203.87 981.656C1216.62 994.677 1223.16 1011.78 1226.46 1036.84C1229.77 1061.99 1229.77 1094.73 1229.77 1138.77H1235.48ZM901.655 949.371C858.694 949.371 826.188 949.365 801.091 952.81C775.911 956.268 757.765 963.247 743.773 977.533L747.81 981.656C760.561 968.631 777.304 961.956 801.853 958.588C826.479 955.205 858.534 955.199 901.655 955.199V949.371ZM721.903 1138.77C721.903 1094.73 721.908 1061.99 725.221 1036.84C728.519 1011.78 735.056 994.677 747.81 981.656L743.773 977.533C729.783 991.819 722.95 1010.35 719.563 1036.07C716.191 1061.7 716.196 1094.89 716.196 1138.77H721.903Z" fill="#D9D9D9"/>
</g>
<path d="M976.433 1044.01L850.344 1116.85V1262.54L976.433 1335.39L1102.52 1262.54V1116.85L976.433 1044.01Z" fill="white"/>
<path d="M872.862 1257.52L972.273 1314.94V1270.21L910.333 1235.42L872.862 1257.52ZM866.062 1251.23V1131.13L902.441 1152.57V1229.76L866.062 1251.23ZM1080.41 1257.52L980.998 1314.94V1270.21L1042.94 1235.42L1080.41 1257.52ZM1087.21 1251.23V1131.13L1050.83 1152.57V1229.76L1087.21 1251.23ZM1082.95 1123.36L980.998 1064.46V1107.7L1046.31 1144.39L1046.81 1144.68L1082.95 1123.36ZM870.317 1123.36L972.273 1064.46V1107.7L906.958 1144.39L906.458 1144.68L870.317 1123.36Z" fill="#8ED6FB"/>
<path d="M980.998 1260.04L1042.11 1225.73V1157.74L980.998 1193.78V1260.04ZM972.273 1260.04L911.166 1225.73V1157.74L972.273 1193.78V1260.04ZM1037.97 1149.88L976.624 1115.42L915.28 1149.88L976.624 1186.06L1037.97 1149.88Z" fill="#1C78C0"/>
<g filter="url(#filter4_i_22_102)">
<path d="M761.824 1915.57C761.824 1830.37 761.824 1787.76 788.292 1761.29C814.763 1734.82 857.366 1734.82 942.571 1734.82H1089.43C1174.63 1734.82 1217.23 1734.82 1243.7 1761.29C1270.18 1787.76 1270.18 1830.37 1270.18 1915.57V2062.43C1270.18 2147.63 1270.18 2190.24 1243.7 2216.7C1217.23 2243.18 1174.63 2243.18 1089.43 2243.18H942.571C857.366 2243.18 814.763 2243.18 788.292 2216.7C761.824 2190.24 761.824 2147.63 761.824 2062.43V1915.57Z" fill="white"/>
<path d="M788.292 2216.7L786.296 2218.7L788.292 2216.7ZM1243.7 2216.7L1241.71 2214.71L1243.7 2216.7ZM1243.7 1761.29L1245.7 1759.3L1243.7 1761.29ZM942.571 1737.65H1089.43V1732H942.571V1737.65ZM1267.35 1915.57V2062.43H1273V1915.57H1267.35ZM1089.43 2240.35H942.571V2246H1089.43V2240.35ZM764.648 2062.43V1915.57H759V2062.43H764.648ZM942.571 2240.35C899.887 2240.35 868.16 2240.35 843.782 2237.07C819.485 2233.8 802.913 2227.33 790.289 2214.71L786.296 2218.7C800.143 2232.55 818.107 2239.32 843.031 2242.66C867.872 2246.01 900.048 2246 942.571 2246V2240.35ZM759 2062.43C759 2104.95 758.992 2137.13 762.333 2161.97C765.682 2186.89 772.449 2204.85 786.296 2218.7L790.289 2214.71C777.668 2202.09 771.198 2185.51 767.93 2161.22C764.654 2136.84 764.648 2105.11 764.648 2062.43H759ZM1267.35 2062.43C1267.35 2105.11 1267.34 2136.84 1264.07 2161.22C1260.8 2185.51 1254.33 2202.09 1241.71 2214.71L1245.7 2218.7C1259.55 2204.85 1266.32 2186.89 1269.66 2161.97C1273.01 2137.13 1273 2104.95 1273 2062.43H1267.35ZM1089.43 2246C1131.95 2246 1164.13 2246.01 1188.97 2242.66C1213.89 2239.32 1231.85 2232.55 1245.7 2218.7L1241.71 2214.71C1229.08 2227.33 1212.51 2233.8 1188.22 2237.07C1163.84 2240.35 1132.11 2240.35 1089.43 2240.35V2246ZM1089.43 1737.65C1132.11 1737.65 1163.84 1737.65 1188.22 1740.93C1212.51 1744.2 1229.08 1750.67 1241.71 1763.29L1245.7 1759.3C1231.85 1745.45 1213.89 1738.68 1188.97 1735.33C1164.13 1731.99 1131.95 1732 1089.43 1732V1737.65ZM1273 1915.57C1273 1873.05 1273.01 1840.87 1269.66 1816.03C1266.32 1791.11 1259.55 1773.14 1245.7 1759.3L1241.71 1763.29C1254.33 1775.91 1260.8 1792.49 1264.07 1816.78C1267.34 1841.16 1267.35 1872.89 1267.35 1915.57H1273ZM942.571 1732C900.048 1732 867.872 1731.99 843.031 1735.33C818.107 1738.68 800.143 1745.45 786.296 1759.3L790.289 1763.29C802.913 1750.67 819.485 1744.2 843.782 1740.93C868.16 1737.65 899.887 1737.65 942.571 1737.65V1732ZM764.648 1915.57C764.648 1872.89 764.654 1841.16 767.93 1816.78C771.198 1792.49 777.668 1775.91 790.289 1763.29L786.296 1759.3C772.449 1773.14 765.682 1791.11 762.333 1816.03C758.992 1840.87 759 1873.05 759 1915.57H764.648Z" fill="#D9D9D9"/>
</g>
<g filter="url(#filter5_i_22_102)">
<path d="M1608 1196.48C1608 1108.57 1608 1064.62 1634.74 1037.31C1661.48 1010 1704.52 1010 1790.61 1010H1938.97C2025.05 1010 2068.09 1010 2094.84 1037.31C2121.58 1064.62 2121.58 1108.57 2121.58 1196.48V1348C2121.58 1435.9 2121.58 1479.86 2094.84 1507.16C2068.09 1534.48 2025.05 1534.48 1938.97 1534.48H1790.61C1704.52 1534.48 1661.48 1534.48 1634.74 1507.16C1608 1479.86 1608 1435.9 1608 1348V1196.48Z" fill="white"/>
<path d="M1611.6 1510.08L1609.58 1512.14L1611.6 1510.08ZM2071.69 1510.08L2069.67 1508.02L2071.69 1510.08ZM2071.69 1040.22L2073.71 1038.16L2071.69 1040.22ZM1767.46 1015.83H1915.83V1010H1767.46V1015.83ZM2095.58 1199.39V1350.91H2101.28V1199.39H2095.58ZM1915.83 1534.47H1767.46V1540.3H1915.83V1534.47ZM1587.71 1350.91V1199.39H1582V1350.91H1587.71ZM1767.46 1534.47C1724.34 1534.47 1692.29 1534.47 1667.66 1531.09C1643.11 1527.72 1626.36 1521.04 1613.61 1508.02L1609.58 1512.14C1623.57 1526.42 1641.71 1533.41 1666.89 1536.86C1691.99 1540.31 1724.5 1540.3 1767.46 1540.3V1534.47ZM1582 1350.91C1582 1394.78 1581.99 1427.98 1585.37 1453.61C1588.75 1479.32 1595.59 1497.85 1609.58 1512.14L1613.61 1508.02C1600.86 1495 1594.33 1477.9 1591.02 1452.83C1587.71 1427.68 1587.71 1394.94 1587.71 1350.91H1582ZM2095.58 1350.91C2095.58 1394.94 2095.57 1427.68 2092.26 1452.83C2088.96 1477.9 2082.42 1495 2069.67 1508.02L2073.71 1512.14C2087.7 1497.85 2094.53 1479.32 2097.92 1453.61C2101.29 1427.98 2101.28 1394.78 2101.28 1350.91H2095.58ZM1915.83 1540.3C1958.79 1540.3 1991.29 1540.31 2016.39 1536.86C2041.57 1533.41 2059.72 1526.42 2073.71 1512.14L2069.67 1508.02C2056.92 1521.04 2040.18 1527.72 2015.63 1531.09C1991 1534.47 1958.95 1534.47 1915.83 1534.47V1540.3ZM1915.83 1015.83C1958.95 1015.83 1991 1015.83 2015.63 1019.22C2040.18 1022.58 2056.92 1029.26 2069.67 1042.28L2073.71 1038.16C2059.72 1023.88 2041.57 1016.9 2016.39 1013.44C1991.29 1009.99 1958.79 1010 1915.83 1010V1015.83ZM2101.28 1199.39C2101.28 1155.52 2101.29 1122.33 2097.92 1096.7C2094.53 1070.98 2087.7 1052.45 2073.71 1038.16L2069.67 1042.28C2082.42 1055.31 2088.96 1072.4 2092.26 1097.47C2095.57 1122.62 2095.58 1155.36 2095.58 1199.39H2101.28ZM1767.46 1010C1724.5 1010 1691.99 1009.99 1666.89 1013.44C1641.71 1016.9 1623.57 1023.88 1609.58 1038.16L1613.61 1042.28C1626.36 1029.26 1643.11 1022.58 1667.66 1019.22C1692.29 1015.83 1724.34 1015.83 1767.46 1015.83V1010ZM1587.71 1199.39C1587.71 1155.36 1587.71 1122.62 1591.02 1097.47C1594.33 1072.4 1600.86 1055.31 1613.61 1042.28L1609.58 1038.16C1595.59 1052.45 1588.75 1070.98 1585.37 1096.7C1581.99 1122.33 1582 1155.52 1582 1199.39H1587.71Z" fill="#D9D9D9"/>
</g>
<path d="M1701.71 1234.59C1701.71 1234.59 1694.77 1229.47 1703.11 1222.64L1722.53 1204.9C1722.53 1204.9 1728.09 1198.93 1733.97 1204.13L1913.26 1342.75V1409.23C1913.26 1409.23 1913.18 1419.66 1900.06 1418.51L1701.71 1234.59Z" fill="#2489CA"/>
<path d="M1747.32 1275L1701.11 1317.9C1701.11 1317.9 1696.36 1321.51 1701.11 1327.96L1722.57 1347.89C1722.57 1347.89 1727.66 1353.48 1735.19 1347.12L1784.18 1309.18L1747.32 1275Z" fill="#1070B3"/>
<path d="M1827.49 1275.41L1912.24 1209.32L1911.69 1143.2C1911.69 1143.2 1908.07 1128.77 1896 1136.28L1783.22 1241.11L1827.49 1275.41Z" fill="#0877B9"/>
<path d="M1897.49 1415.53C1902.41 1420.68 1908.38 1418.99 1908.38 1418.99L1974.42 1385.76C1982.88 1379.87 1981.69 1372.57 1981.69 1372.57V1174.09C1981.69 1165.37 1972.95 1162.35 1972.95 1162.35L1915.7 1134.18C1903.19 1126.28 1895 1135.59 1895 1135.59C1895 1135.59 1905.54 1127.85 1910.69 1142.51V1404.95C1910.69 1406.75 1910.32 1408.53 1909.56 1410.12C1908.06 1413.23 1904.79 1416.12 1896.94 1414.91L1897.49 1415.53Z" fill="#3C99D4"/>
<g filter="url(#filter6_i_22_102)">
<path d="M606.494 190.282C606.494 102.375 606.494 58.4211 633.237 31.1117C659.98 3.80225 703.018 3.80225 789.1 3.80225H937.467C1023.55 3.80225 1066.59 3.80225 1093.33 31.1117C1120.07 58.4211 1120.07 102.375 1120.07 190.282V341.797C1120.07 429.705 1120.07 473.659 1093.33 500.967C1066.59 528.277 1023.55 528.277 937.467 528.277H789.1C703.018 528.277 659.98 528.277 633.237 500.967C606.494 473.659 606.494 429.705 606.494 341.797V190.282Z" fill="white"/>
<path d="M633.237 500.967L631.22 503.03L633.237 500.967ZM1093.33 500.967L1091.31 498.907L1093.33 500.967ZM1093.33 31.1116L1095.35 29.0513L1093.33 31.1116ZM789.099 6.71593H937.466V0.888428H789.099V6.71593ZM1117.22 190.282V341.797H1122.92V190.282H1117.22ZM937.466 525.363H789.099V531.191H937.466V525.363ZM609.347 341.797V190.282H603.641V341.797H609.347ZM789.099 525.363C745.979 525.363 713.926 525.358 689.297 521.975C664.751 518.606 648.008 511.931 635.254 498.907L631.22 503.03C645.209 517.316 663.358 524.294 688.535 527.753C713.635 531.197 746.141 531.191 789.099 531.191V525.363ZM603.641 341.797C603.641 385.669 603.635 418.866 607.01 444.495C610.394 470.209 617.23 488.741 631.22 503.03L635.254 498.907C622.503 485.885 615.966 468.787 612.665 443.717C609.356 418.569 609.347 385.833 609.347 341.797H603.641ZM1117.22 341.797C1117.22 385.833 1117.21 418.569 1113.9 443.717C1110.6 468.787 1104.07 485.885 1091.31 498.907L1095.35 503.03C1109.34 488.741 1116.17 470.209 1119.56 444.495C1122.93 418.866 1122.92 385.669 1122.92 341.797H1117.22ZM937.466 531.191C980.427 531.191 1012.93 531.197 1038.03 527.753C1063.21 524.294 1081.36 517.316 1095.35 503.03L1091.31 498.907C1078.56 511.931 1061.82 518.606 1037.27 521.975C1012.64 525.358 980.59 525.363 937.466 525.363V531.191ZM937.466 6.71593C980.59 6.71593 1012.64 6.72205 1037.27 10.1037C1061.82 13.4738 1078.56 20.1489 1091.31 33.1719L1095.35 29.0513C1081.36 14.7649 1063.21 7.78527 1038.03 4.32811C1012.93 0.882251 980.427 0.888428 937.466 0.888428V6.71593ZM1122.92 190.282C1122.92 146.411 1122.93 113.214 1119.56 87.5844C1116.17 61.8706 1109.34 43.3374 1095.35 29.0513L1091.31 33.1719C1104.07 46.1949 1110.6 63.2934 1113.9 88.3607C1117.21 113.512 1117.22 146.246 1117.22 190.282H1122.92ZM789.099 0.888428C746.141 0.888428 713.635 0.882251 688.535 4.32811C663.358 7.78527 645.209 14.7649 631.22 29.0513L635.254 33.1719C648.008 20.1489 664.751 13.4738 689.297 10.1037C713.926 6.72205 745.979 6.71593 789.099 6.71593V0.888428ZM609.347 190.282C609.347 146.246 609.356 113.512 612.665 88.3607C615.966 63.2934 622.503 46.1949 635.254 33.1719L631.22 29.0513C617.23 43.3374 610.394 61.8706 607.01 87.5844C603.635 113.214 603.641 146.411 603.641 190.282H609.347Z" fill="#D9D9D9"/>
</g>
<g filter="url(#filter7_i_22_102)">
<path d="M2196.52 201.937C2196.52 114.03 2196.52 70.0761 2223.26 42.7667C2250.01 15.4573 2293.05 15.4573 2379.13 15.4573H2527.5C2613.57 15.4573 2656.61 15.4573 2683.36 42.7667C2710.1 70.0761 2710.1 114.03 2710.1 201.937V353.452C2710.1 441.36 2710.1 485.314 2683.36 512.622C2656.61 539.932 2613.57 539.932 2527.5 539.932H2379.13C2293.05 539.932 2250.01 539.932 2223.26 512.622C2196.52 485.314 2196.52 441.36 2196.52 353.452V201.937Z" fill="white"/>
<path d="M2223.26 512.622L2221.25 514.685L2223.26 512.622ZM2683.36 512.622L2681.34 510.562L2683.36 512.622ZM2683.36 42.7666L2685.37 40.7063L2683.36 42.7666ZM2379.13 18.371H2527.5V12.5435H2379.13V18.371ZM2707.25 201.937V353.452H2712.95V201.937H2707.25ZM2527.5 537.018H2379.13V542.846H2527.5V537.018ZM2199.38 353.452V201.937H2193.67V353.452H2199.38ZM2379.13 537.018C2336 537.018 2303.95 537.013 2279.32 533.63C2254.78 530.261 2238.03 523.586 2225.28 510.562L2221.25 514.685C2235.24 528.971 2253.38 535.949 2278.56 539.408C2303.66 542.852 2336.17 542.846 2379.13 542.846V537.018ZM2193.67 353.452C2193.67 397.325 2193.66 430.521 2197.04 456.15C2200.42 481.864 2207.26 500.396 2221.25 514.685L2225.28 510.562C2212.53 497.54 2205.99 480.442 2202.69 455.372C2199.38 430.224 2199.38 397.488 2199.38 353.452H2193.67ZM2707.25 353.452C2707.25 397.488 2707.24 430.224 2703.93 455.372C2700.63 480.442 2694.09 497.54 2681.34 510.562L2685.37 514.685C2699.36 500.396 2706.2 481.864 2709.58 456.15C2712.96 430.521 2712.95 397.325 2712.95 353.452H2707.25ZM2527.5 542.846C2570.45 542.846 2602.96 542.852 2628.06 539.408C2653.24 535.949 2671.39 528.971 2685.37 514.685L2681.34 510.562C2668.59 523.586 2651.84 530.261 2627.3 533.63C2602.67 537.013 2570.62 537.018 2527.5 537.018V542.846ZM2527.5 18.371C2570.62 18.371 2602.67 18.3771 2627.3 21.7588C2651.84 25.1288 2668.59 31.8039 2681.34 44.8269L2685.37 40.7063C2671.39 26.4199 2653.24 19.4403 2628.06 15.9831C2602.96 12.5373 2570.45 12.5435 2527.5 12.5435V18.371ZM2712.95 201.937C2712.95 158.066 2712.96 124.869 2709.58 99.2395C2706.2 73.5256 2699.36 54.9924 2685.37 40.7063L2681.34 44.8269C2694.09 57.8499 2700.63 74.9484 2703.93 100.016C2707.24 125.167 2707.25 157.901 2707.25 201.937H2712.95ZM2379.13 12.5435C2336.17 12.5435 2303.66 12.5373 2278.56 15.9831C2253.38 19.4403 2235.24 26.4199 2221.25 40.7063L2225.28 44.8269C2238.03 31.8039 2254.78 25.1288 2279.32 21.7588C2303.95 18.3771 2336 18.371 2379.13 18.371V12.5435ZM2199.38 201.937C2199.38 157.901 2199.38 125.167 2202.69 100.016C2205.99 74.9484 2212.53 57.8499 2225.28 44.8269L2221.25 40.7063C2207.26 54.9924 2200.42 73.5256 2197.04 99.2395C2193.66 124.869 2193.67 158.066 2193.67 201.937H2199.38Z" fill="#D9D9D9"/>
</g>
<path d="M2580.19 132.007L2557.27 394.215L2454.24 423.382L2351.5 394.256L2328.61 132.007H2580.19Z" fill="#264DE4"/>
<path d="M2537.64 377.517L2557.23 153.45H2454.4V401.086L2537.64 377.517Z" fill="#2965F1"/>
<path d="M2381.09 250.714L2383.92 282.878H2454.4V250.714H2381.09Z" fill="#EBEBEB"/>
<path d="M2454.4 185.614H2454.29H2375.42L2378.28 217.778H2454.4V185.614Z" fill="#EBEBEB"/>
<path d="M2454.4 367.709V334.245L2454.26 334.283L2419.18 324.612L2416.94 298.959H2399.89H2385.32L2389.74 349.46L2454.25 367.75L2454.4 367.709Z" fill="#EBEBEB"/>
<path d="M2493.07 282.878L2489.41 324.592L2454.29 334.274V367.735L2518.86 349.46L2519.33 344.026L2526.73 259.35L2527.5 250.714L2533.18 185.614H2454.29V217.778H2498.67L2495.8 250.714H2454.29V282.878H2493.07Z" fill="white"/>
<g filter="url(#filter8_i_22_102)">
<path d="M2596.85 1688.39C2596.85 1600.49 2596.85 1556.53 2623.59 1529.22C2650.34 1501.91 2693.38 1501.91 2779.46 1501.91H2927.82C3013.9 1501.91 3056.96 1501.91 3083.69 1529.22C3110.43 1556.53 3110.43 1600.49 3110.43 1688.39V1839.91C3110.43 1927.82 3110.43 1971.77 3083.69 1999.08C3056.96 2026.39 3013.9 2026.39 2927.82 2026.39H2779.46C2693.38 2026.39 2650.34 2026.39 2623.59 1999.08C2596.85 1971.77 2596.85 1927.82 2596.85 1839.91V1688.39Z" fill="white"/>
<path d="M2623.59 1999.08L2621.58 2001.14L2623.59 1999.08ZM3083.69 1999.08L3081.67 1997.02L3083.69 1999.08ZM3083.69 1529.22L3085.72 1527.16L3083.69 1529.22ZM2779.46 1504.83H2927.82V1499H2779.46V1504.83ZM3107.57 1688.39V1839.91H3113.28V1688.39H3107.57ZM2927.82 2023.47H2779.46V2029.3H2927.82V2023.47ZM2599.71 1839.91V1688.39H2594V1839.91H2599.71ZM2779.46 2023.47C2736.34 2023.47 2704.28 2023.47 2679.65 2020.09C2655.11 2016.72 2638.36 2010.04 2625.61 1997.02L2621.58 2001.14C2635.57 2015.43 2653.71 2022.41 2678.89 2025.86C2703.99 2029.31 2736.5 2029.3 2779.46 2029.3V2023.47ZM2594 1839.91C2594 1883.78 2593.99 1916.98 2597.37 1942.61C2600.75 1968.32 2607.59 1986.85 2621.58 2001.14L2625.61 1997.02C2612.86 1984 2606.32 1966.9 2603.02 1941.83C2599.71 1916.68 2599.71 1883.94 2599.71 1839.91H2594ZM3107.57 1839.91C3107.57 1883.94 3107.57 1916.68 3104.26 1941.83C3100.95 1966.9 3094.42 1984 3081.67 1997.02L3085.72 2001.14C3099.7 1986.85 3106.52 1968.32 3109.91 1942.61C3113.28 1916.98 3113.28 1883.78 3113.28 1839.91H3107.57ZM2927.82 2029.3C2970.79 2029.3 3003.29 2029.31 3028.4 2025.86C3053.56 2022.41 3071.71 2015.43 3085.72 2001.14L3081.67 1997.02C3068.91 2010.04 3052.16 2016.72 3027.63 2020.09C3003 2023.47 2970.93 2023.47 2927.82 2023.47V2029.3ZM2927.82 1504.83C2970.93 1504.83 3003 1504.83 3027.63 1508.22C3052.16 1511.58 3068.91 1518.26 3081.67 1531.28L3085.72 1527.16C3071.71 1512.88 3053.56 1505.9 3028.4 1502.44C3003.29 1498.99 2970.79 1499 2927.82 1499V1504.83ZM3113.28 1688.39C3113.28 1644.52 3113.28 1611.33 3109.91 1585.7C3106.52 1559.98 3099.7 1541.45 3085.72 1527.16L3081.67 1531.28C3094.42 1544.31 3100.95 1561.4 3104.26 1586.47C3107.57 1611.62 3107.57 1644.36 3107.57 1688.39H3113.28ZM2779.46 1499C2736.5 1499 2703.99 1498.99 2678.89 1502.44C2653.71 1505.9 2635.57 1512.88 2621.58 1527.16L2625.61 1531.28C2638.36 1518.26 2655.11 1511.58 2679.65 1508.22C2704.28 1504.83 2736.34 1504.83 2779.46 1504.83V1499ZM2599.71 1688.39C2599.71 1644.36 2599.71 1611.62 2603.02 1586.47C2606.32 1561.4 2612.86 1544.31 2625.61 1531.28L2621.58 1527.16C2607.59 1541.45 2600.75 1559.98 2597.37 1585.7C2593.99 1611.33 2594 1644.52 2594 1688.39H2599.71Z" fill="#D9D9D9"/>
</g>
<path d="M2874.62 1806.57L2804.65 1791.64C2804.36 1792.22 2804.03 1792.78 2803.67 1793.32L2867.37 1888.22L2871.22 1884.29L2882.07 1815.47C2880.21 1814.68 2878.61 1813.46 2877.3 1811.92C2876.02 1810.37 2875.1 1808.54 2874.62 1806.57ZM2849.1 1713.16C2846.48 1717.26 2841.95 1719.98 2836.8 1719.98C2836 1719.98 2835.23 1719.9 2834.48 1719.77L2802.56 1770.77L2887.83 1733.3C2887.8 1732.95 2887.72 1732.62 2887.72 1732.26C2887.72 1731.53 2887.83 1730.82 2887.94 1730.12L2849.1 1713.16ZM2851.42 1703.87L2892.74 1721.9C2894.05 1720.85 2895.56 1720.07 2897.16 1719.62L2903.95 1676.5L2878.07 1650.09L2848.97 1696.61C2850.39 1698.77 2851.24 1701.27 2851.42 1703.87ZM2937.99 1711.25L2912.05 1684.77L2906.4 1720.52C2907.86 1721.25 2909.14 1722.25 2910.2 1723.46L2937.99 1711.25ZM2875.87 1797.15C2876.87 1795.27 2878.33 1793.68 2880.1 1792.52C2881.87 1791.36 2883.89 1790.67 2886 1790.5L2893.45 1743.21C2892.85 1742.82 2892.34 1742.34 2891.82 1741.86L2806.07 1779.54C2806.29 1780.46 2806.44 1781.39 2806.51 1782.36L2875.87 1797.15ZM2945.04 1718.47L2915.05 1731.65L2989.06 1763.96L2989.32 1763.69L2945.04 1718.47ZM2891.42 1815.61L2882.44 1872.84L2934.76 1819.39L2897.07 1811.35C2895.62 1813.28 2893.68 1814.76 2891.42 1815.61ZM2789.7 1800.9C2787.8 1800.9 2785.99 1800.56 2784.29 1799.98L2766.9 1827.76L2760.19 1820.91L2776.65 1794.59C2776.25 1794.08 2775.87 1793.54 2775.52 1792.98L2745.68 1806.1L2738.61 1798.87L2771.27 1784.52L2712.23 1771.94L2704.15 1763.69L2706.71 1761.08L2774.79 1775.59C2775.57 1774.08 2776.57 1772.69 2777.76 1771.48L2744.72 1722.26L2751.39 1715.44L2785.92 1766.87C2787.16 1766.57 2788.42 1766.42 2789.7 1766.42C2791.15 1766.42 2792.57 1766.63 2793.92 1766.98L2826.22 1715.36C2823.59 1712.58 2822.12 1708.86 2822.13 1704.99C2822.13 1703.8 2822.27 1702.66 2822.53 1701.55L2782.23 1683.96L2789.3 1676.74L2827.48 1693.42C2829.42 1691.78 2831.73 1690.69 2834.2 1690.24C2836.67 1689.79 2839.21 1689.99 2841.58 1690.84L2871.37 1643.23L2846.66 1618L2704 1763.69L2846.66 1909.38L2860.7 1895.04L2796.52 1799.42C2794.37 1800.39 2792.05 1800.9 2789.7 1800.9ZM2902.52 1745.25L2894.93 1793.33C2896.28 1794.41 2897.36 1795.76 2898.16 1797.29C2898.99 1798.81 2899.47 1800.49 2899.61 1802.22L2942.61 1811.38L2981.99 1771.18L2910.91 1740.16C2908.89 1742.92 2905.86 1744.75 2902.52 1745.25Z" fill="#25C7B7"/>
<g filter="url(#filter9_i_22_102)">
<path d="M0 1485.88C0 1398.73 2.72103e-06 1355.15 26.742 1328.07C53.4837 1301 96.5244 1301 182.606 1301H330.973C417.054 1301 460.095 1301 486.835 1328.07C513.578 1355.15 513.578 1398.73 513.578 1485.88V1636.09C513.578 1723.24 513.578 1766.82 486.835 1793.89C460.095 1820.97 417.054 1820.97 330.973 1820.97H182.606C96.5244 1820.97 53.4837 1820.97 26.742 1793.89C2.72103e-06 1766.82 0 1723.24 0 1636.09V1485.88Z" fill="white"/>
<path d="M29.5952 1806.78L27.5777 1808.83L29.5952 1806.78ZM489.688 1806.78L487.671 1804.74L489.688 1806.78ZM489.688 1340.96L491.706 1338.92L489.688 1340.96ZM185.459 1316.78H333.826V1311H185.459V1316.78ZM513.578 1498.77V1648.98H519.285V1498.77H513.578ZM333.826 1830.97H185.459V1836.75H333.826V1830.97ZM5.70642 1648.98V1498.77H7.50397e-08V1648.98H5.70642ZM185.459 1830.97C142.338 1830.97 110.283 1830.96 85.6548 1827.61C61.1084 1824.27 44.3651 1817.65 31.6127 1804.74L27.5777 1808.83C41.567 1822.99 59.7151 1829.91 84.8944 1833.34C109.992 1836.75 142.499 1836.75 185.459 1836.75V1830.97ZM7.50397e-08 1648.98C7.50397e-08 1692.47 -0.00599172 1725.39 3.36822 1750.8C6.75326 1776.29 13.5881 1794.66 27.5777 1808.83L31.6127 1804.74C18.86 1791.83 12.3239 1774.88 9.02357 1750.03C5.71242 1725.09 5.70642 1692.64 5.70642 1648.98H7.50397e-08ZM513.578 1648.98C513.578 1692.64 513.573 1725.09 510.26 1750.03C506.962 1774.88 500.425 1791.83 487.671 1804.74L491.706 1808.83C505.695 1794.66 512.531 1776.29 515.915 1750.8C519.29 1725.39 519.285 1692.47 519.285 1648.98H513.578ZM333.826 1836.75C376.787 1836.75 409.293 1836.75 434.39 1833.34C459.57 1829.91 477.716 1822.99 491.706 1808.83L487.671 1804.74C474.92 1817.65 458.175 1824.27 433.628 1827.61C409 1830.96 376.947 1830.97 333.826 1830.97V1836.75ZM333.826 1316.78C376.947 1316.78 409 1316.78 433.628 1320.13C458.175 1323.48 474.92 1330.09 487.671 1343L491.706 1338.92C477.716 1324.76 459.57 1317.84 434.39 1314.41C409.293 1310.99 376.787 1311 333.826 1311V1316.78ZM519.285 1498.77C519.285 1455.27 519.29 1422.36 515.915 1396.95C512.531 1371.46 505.695 1353.08 491.706 1338.92L487.671 1343C500.425 1355.92 506.962 1372.87 510.26 1397.72C513.573 1422.66 513.578 1455.11 513.578 1498.77H519.285ZM185.459 1311C142.499 1311 109.992 1310.99 84.8944 1314.41C59.7151 1317.84 41.567 1324.76 27.5777 1338.92L31.6127 1343C44.3651 1330.09 61.1084 1323.48 85.6548 1320.13C110.283 1316.78 142.338 1316.78 185.459 1316.78V1311ZM5.70642 1498.77C5.70642 1455.11 5.71242 1422.66 9.02357 1397.72C12.3239 1372.87 18.86 1355.92 31.6127 1343L27.5777 1338.92C13.5881 1353.08 6.75326 1371.46 3.36822 1396.95C-0.00599172 1422.36 7.50397e-08 1455.27 7.50397e-08 1498.77H5.70642Z" fill="#D9D9D9"/>
</g>
<g filter="url(#filter10_i_22_102)">
<path d="M2577.57 873.283C2577.57 785.375 2577.57 741.421 2604.32 714.11C2631.06 686.803 2674.1 686.803 2760.18 686.803H2908.54C2994.62 686.803 3037.68 686.803 3064.41 714.11C3091.15 741.421 3091.15 785.375 3091.15 873.283V1024.8C3091.15 1112.71 3091.15 1156.66 3064.41 1183.97C3037.68 1211.28 2994.62 1211.28 2908.54 1211.28H2760.18C2674.1 1211.28 2631.06 1211.28 2604.32 1183.97C2577.57 1156.66 2577.57 1112.71 2577.57 1024.8V873.283Z" fill="white"/>
<path d="M2604.32 1183.97L2602.3 1186.03L2604.32 1183.97ZM3064.41 1183.97L3062.39 1181.91L3064.41 1183.97ZM3064.41 714.11L3066.44 712.05L3064.41 714.11ZM2760.18 689.716H2908.54V683.889H2760.18V689.716ZM3088.29 873.283V1024.8H3094V873.283H3088.29ZM2908.54 1208.36H2760.18V1214.19H2908.54V1208.36ZM2580.43 1024.8V873.283H2574.72V1024.8H2580.43ZM2760.18 1208.36C2717.06 1208.36 2685 1208.36 2660.38 1204.98C2635.83 1201.6 2619.09 1194.93 2606.33 1181.91L2602.3 1186.03C2616.29 1200.31 2634.44 1207.29 2659.62 1210.75C2684.71 1214.2 2717.22 1214.19 2760.18 1214.19V1208.36ZM2574.72 1024.8C2574.72 1068.67 2574.72 1101.87 2578.09 1127.5C2581.48 1153.21 2588.31 1171.74 2602.3 1186.03L2606.33 1181.91C2593.58 1168.89 2587.04 1151.78 2583.74 1126.72C2580.43 1101.57 2580.43 1068.83 2580.43 1024.8H2574.72ZM3088.29 1024.8C3088.29 1068.83 3088.29 1101.57 3084.98 1126.72C3081.67 1151.78 3075.14 1168.89 3062.39 1181.91L3066.44 1186.03C3080.42 1171.74 3087.24 1153.21 3090.63 1127.5C3094 1101.87 3094 1068.67 3094 1024.8H3088.29ZM2908.54 1214.19C2951.51 1214.19 2984.01 1214.2 3009.12 1210.75C3034.28 1207.29 3052.43 1200.31 3066.44 1186.03L3062.39 1181.91C3049.63 1194.93 3032.88 1201.6 3008.35 1204.98C2983.72 1208.36 2951.65 1208.36 2908.54 1208.36V1214.19ZM2908.54 689.716C2951.65 689.716 2983.72 689.722 3008.35 693.102C3032.88 696.473 3049.63 703.149 3062.39 716.17L3066.44 712.05C3052.43 697.764 3034.28 690.786 3009.12 687.327C2984.01 683.883 2951.51 683.889 2908.54 683.889V689.716ZM3094 873.283C3094 829.41 3094 796.214 3090.63 770.585C3087.24 744.871 3080.42 726.336 3066.44 712.05L3062.39 716.17C3075.14 729.195 3081.67 746.293 3084.98 771.36C3088.29 796.511 3088.29 829.247 3088.29 873.283H3094ZM2760.18 683.889C2717.22 683.889 2684.71 683.883 2659.62 687.327C2634.44 690.786 2616.29 697.764 2602.3 712.05L2606.33 716.17C2619.09 703.149 2635.83 696.473 2660.38 693.102C2685 689.722 2717.06 689.716 2760.18 689.716V683.889ZM2580.43 873.283C2580.43 829.247 2580.43 796.511 2583.74 771.36C2587.04 746.293 2593.58 729.195 2606.33 716.17L2602.3 712.05C2588.31 726.336 2581.48 744.871 2578.09 770.585C2574.72 796.214 2574.72 829.41 2574.72 873.283H2580.43Z" fill="#D9D9D9"/>
</g>
<path d="M2901.81 857.671H2915.39C2919.18 857.671 2922.18 860.722 2922.18 864.608C2922.18 868.493 2919.18 871.543 2915.39 871.543H2901.81C2898.01 871.543 2895.02 868.493 2895.02 864.608C2895.02 860.722 2898.01 857.671 2901.81 857.671Z" fill="#56B3B4"/>
<path d="M2698.01 1079.67H2765.94C2769.74 1079.67 2772.73 1082.72 2772.73 1086.61C2772.73 1090.49 2769.74 1093.54 2765.94 1093.54H2698.01C2694.2 1093.54 2691.21 1090.49 2691.21 1086.61C2691.21 1082.72 2694.2 1079.67 2698.01 1079.67Z" fill="#EA5E5E"/>
<path d="M2861.04 968.67H2901.81C2905.6 968.67 2908.6 971.724 2908.6 975.608C2908.6 979.492 2905.6 982.545 2901.81 982.545H2861.04C2857.24 982.545 2854.24 979.492 2854.24 975.608C2854.24 971.724 2857.24 968.67 2861.04 968.67Z" fill="#BF85BF"/>
<path d="M2779.53 968.67H2833.87C2837.67 968.67 2840.66 971.724 2840.66 975.608C2840.66 979.492 2837.67 982.545 2833.87 982.545H2779.53C2775.72 982.545 2772.73 979.492 2772.73 975.608C2772.73 971.724 2775.72 968.67 2779.53 968.67Z" fill="#EA5E5E"/>
<path d="M2698.01 968.67H2752.35C2756.16 968.67 2759.15 971.724 2759.15 975.608C2759.15 979.492 2756.16 982.545 2752.35 982.545H2698.01C2694.2 982.545 2691.21 979.492 2691.21 975.608C2691.21 971.724 2694.2 968.67 2698.01 968.67Z" fill="#56B3B4"/>
<path d="M2698.01 1024.17H2765.94C2769.74 1024.17 2772.73 1027.22 2772.73 1031.11C2772.73 1034.99 2769.74 1038.04 2765.94 1038.04H2698.01C2694.2 1038.04 2691.21 1034.99 2691.21 1031.11C2691.21 1027.22 2694.2 1024.17 2698.01 1024.17Z" fill="#BF85BF"/>
<path d="M2698.01 913.169H2765.94C2769.74 913.169 2772.73 916.223 2772.73 920.107C2772.73 923.994 2769.74 927.044 2765.94 927.044H2698.01C2694.2 927.044 2691.21 923.994 2691.21 920.107C2691.21 916.223 2694.2 913.169 2698.01 913.169Z" fill="#BF85BF"/>
<path d="M2765.94 829.92H2901.81C2905.6 829.92 2908.6 832.971 2908.6 836.858C2908.6 840.742 2905.6 843.796 2901.81 843.796H2765.94C2762.14 843.796 2759.15 840.742 2759.15 836.858C2759.15 832.971 2762.14 829.92 2765.94 829.92Z" fill="#F7BA3E"/>
<path d="M2698.01 829.92H2738.77C2742.57 829.92 2745.56 832.971 2745.56 836.858C2745.56 840.742 2742.57 843.796 2738.77 843.796H2698.01C2694.2 843.796 2691.21 840.742 2691.21 836.858C2691.21 832.971 2694.2 829.92 2698.01 829.92Z" fill="#EA5E5E"/>
<path d="M2752.35 1051.92H2765.94C2769.74 1051.92 2772.73 1054.97 2772.73 1058.86C2772.73 1062.74 2769.74 1065.79 2765.94 1065.79H2752.35C2748.55 1065.79 2745.56 1062.74 2745.56 1058.86C2745.56 1054.97 2748.55 1051.92 2752.35 1051.92Z" fill="#F7BA3E"/>
<path d="M2752.35 885.421H2765.94C2769.74 885.421 2772.73 888.472 2772.73 892.356C2772.73 896.243 2769.74 899.294 2765.94 899.294H2752.35C2748.55 899.294 2745.56 896.243 2745.56 892.356C2745.56 888.472 2748.55 885.421 2752.35 885.421Z" fill="#56B3B4"/>
<path d="M2698.01 1051.92H2725.18C2728.98 1051.92 2731.97 1054.97 2731.97 1058.86C2731.97 1062.74 2728.98 1065.79 2725.18 1065.79H2698.01C2694.2 1065.79 2691.21 1062.74 2691.21 1058.86C2691.21 1054.97 2694.2 1051.92 2698.01 1051.92Z" fill="#56B3B4"/>
<path d="M2698.01 885.421H2725.18C2728.98 885.421 2731.97 888.472 2731.97 892.356C2731.97 896.243 2728.98 899.294 2725.18 899.294H2698.01C2694.2 899.294 2691.21 896.243 2691.21 892.356C2691.21 888.472 2694.2 885.421 2698.01 885.421Z" fill="#F7BA3E"/>
<path opacity="0.5" d="M2874.65 1051.92H2888.23C2892.02 1051.92 2895.02 1054.97 2895.02 1058.86C2895.02 1062.74 2892.02 1065.79 2888.23 1065.79H2874.65C2870.82 1065.79 2867.83 1062.74 2867.83 1058.86C2867.83 1054.97 2870.82 1051.92 2874.65 1051.92Z" fill="#D0D4D8"/>
<path opacity="0.5" d="M2793.11 1051.92H2847.45C2851.28 1051.92 2854.25 1054.97 2854.25 1058.86C2854.25 1062.74 2851.28 1065.79 2847.45 1065.79H2793.11C2789.31 1065.79 2786.32 1062.74 2786.32 1058.86C2786.32 1054.97 2789.31 1051.92 2793.11 1051.92Z" fill="#D0D4D8"/>
<path opacity="0.5" d="M2915.39 1051.92H2969.74C2973.54 1051.92 2976.53 1054.97 2976.53 1058.86C2976.53 1062.74 2973.54 1065.79 2969.74 1065.79H2915.39C2911.59 1065.79 2908.6 1062.74 2908.6 1058.86C2908.6 1054.97 2911.59 1051.92 2915.39 1051.92Z" fill="#D0D4D8"/>
<path d="M2806.71 940.919H2915.39C2919.18 940.919 2922.18 943.973 2922.18 947.857C2922.18 951.741 2919.18 954.795 2915.39 954.795H2806.71C2802.89 954.795 2799.92 951.741 2799.92 947.857C2799.92 943.973 2802.89 940.919 2806.71 940.919Z" fill="#56B3B4"/>
<path d="M2738.77 940.919H2779.53C2783.33 940.919 2786.32 943.973 2786.32 947.857C2786.32 951.741 2783.33 954.795 2779.53 954.795H2738.77C2734.96 954.795 2731.97 951.741 2731.97 947.857C2731.97 943.973 2734.96 940.919 2738.77 940.919Z" fill="#F7BA3E"/>
<path d="M2698.01 940.919H2711.59C2715.4 940.919 2718.39 943.973 2718.39 947.857C2718.39 951.741 2715.4 954.795 2711.59 954.795H2698.01C2694.2 954.795 2691.21 951.741 2691.21 947.857C2691.21 943.973 2694.2 940.919 2698.01 940.919Z" fill="#EA5E5E"/>
<path d="M2820.29 857.671H2874.65C2878.44 857.671 2881.44 860.722 2881.44 864.608C2881.44 868.493 2878.44 871.543 2874.65 871.543H2820.29C2816.47 871.543 2813.5 868.493 2813.5 864.608C2813.5 860.722 2816.47 857.671 2820.29 857.671Z" fill="#BF85BF"/>
<path d="M2698.01 857.671H2793.11C2796.92 857.671 2799.92 860.722 2799.92 864.608C2799.92 868.493 2796.92 871.543 2793.11 871.543H2698.01C2694.2 871.543 2691.21 868.493 2691.21 864.608C2691.21 860.722 2694.2 857.671 2698.01 857.671Z" fill="#56B3B4"/>
<path d="M2738.77 996.421H2861.04C2864.86 996.421 2867.83 999.471 2867.83 1003.36C2867.83 1007.24 2864.86 1010.3 2861.04 1010.3H2738.77C2734.96 1010.3 2731.97 1007.24 2731.97 1003.36C2731.97 999.471 2734.96 996.421 2738.77 996.421Z" fill="#F7BA3E"/>
<path d="M2698.01 996.421H2711.59C2715.4 996.421 2718.39 999.471 2718.39 1003.36C2718.39 1007.24 2715.4 1010.3 2711.59 1010.3H2698.01C2694.2 1010.3 2691.21 1007.24 2691.21 1003.36C2691.21 999.471 2694.2 996.421 2698.01 996.421Z" fill="#BF85BF"/>
<path d="M2861.04 885.421H2928.97C2932.79 885.421 2935.76 888.472 2935.76 892.356C2935.76 896.243 2932.79 899.294 2928.97 899.294H2861.04C2857.24 899.294 2854.24 896.243 2854.24 892.356C2854.24 888.472 2857.24 885.421 2861.04 885.421Z" fill="#EA5E5E"/>
<path d="M2861.04 913.169H2928.97C2932.79 913.169 2935.76 916.223 2935.76 920.107C2935.76 923.994 2932.79 927.044 2928.97 927.044H2861.04C2857.24 927.044 2854.24 923.994 2854.24 920.107C2854.24 916.223 2857.24 913.169 2861.04 913.169Z" fill="#F7BA3E"/>
<path d="M2698.01 802.17H2861.04C2864.86 802.17 2867.83 805.223 2867.83 809.107C2867.83 812.991 2864.86 816.045 2861.04 816.045H2698.01C2694.2 816.045 2691.21 812.991 2691.21 809.107C2691.21 805.223 2694.2 802.17 2698.01 802.17Z" fill="#56B3B4"/>
<path opacity="0.5" d="M2888.23 802.17H2969.74C2973.54 802.17 2976.53 805.223 2976.53 809.107C2976.53 812.991 2973.54 816.045 2969.74 816.045H2888.23C2884.4 816.045 2881.44 812.991 2881.44 809.107C2881.44 805.223 2884.4 802.17 2888.23 802.17Z" fill="#D0D4D8"/>
<path opacity="0.5" d="M2888.23 996.421H2915.39C2919.18 996.421 2922.18 999.471 2922.18 1003.36C2922.18 1007.24 2919.18 1010.3 2915.39 1010.3H2888.23C2884.4 1010.3 2881.44 1007.24 2881.44 1003.36C2881.44 999.471 2884.4 996.421 2888.23 996.421Z" fill="#D0D4D8"/>
<path opacity="0.5" d="M2942.58 996.421H2969.74C2973.54 996.421 2976.53 999.471 2976.53 1003.36C2976.53 1007.24 2973.54 1010.3 2969.74 1010.3H2942.58C2938.76 1010.3 2935.76 1007.24 2935.76 1003.36C2935.76 999.471 2938.76 996.421 2942.58 996.421Z" fill="#D0D4D8"/>
<path opacity="0.5" d="M2928.97 968.67H2969.74C2973.54 968.67 2976.53 971.724 2976.53 975.608C2976.53 979.492 2973.54 982.545 2969.74 982.545H2928.97C2925.18 982.545 2922.18 979.492 2922.18 975.608C2922.18 971.724 2925.18 968.67 2928.97 968.67Z" fill="#D0D4D8"/>
<path opacity="0.5" d="M2928.97 829.92H2969.74C2973.54 829.92 2976.53 832.971 2976.53 836.858C2976.53 840.742 2973.54 843.796 2969.74 843.796H2928.97C2925.18 843.796 2922.18 840.742 2922.18 836.858C2922.18 832.971 2925.18 829.92 2928.97 829.92Z" fill="#D0D4D8"/>
<path opacity="0.5" d="M2942.58 940.919H2969.74C2973.54 940.919 2976.53 943.973 2976.53 947.857C2976.53 951.741 2973.54 954.795 2969.74 954.795H2942.58C2938.76 954.795 2935.76 951.741 2935.76 947.857C2935.76 943.973 2938.76 940.919 2942.58 940.919Z" fill="#D0D4D8"/>
<path opacity="0.5" d="M2942.58 857.671H2969.74C2973.54 857.671 2976.53 860.722 2976.53 864.608C2976.53 868.493 2973.54 871.543 2969.74 871.543H2942.58C2938.76 871.543 2935.76 868.493 2935.76 864.608C2935.76 860.722 2938.76 857.671 2942.58 857.671Z" fill="#D0D4D8"/>
<path opacity="0.5" d="M2956.16 885.421H2969.74C2973.54 885.421 2976.53 888.472 2976.53 892.356C2976.53 896.243 2973.54 899.294 2969.74 899.294H2956.16C2952.34 899.294 2949.37 896.243 2949.37 892.356C2949.37 888.472 2952.34 885.421 2956.16 885.421Z" fill="#D0D4D8"/>
<path opacity="0.5" d="M2956.16 913.169H2969.74C2973.54 913.169 2976.53 916.223 2976.53 920.107C2976.53 923.994 2973.54 927.044 2969.74 927.044H2956.16C2952.34 927.044 2949.37 923.994 2949.37 920.107C2949.37 916.223 2952.34 913.169 2956.16 913.169Z" fill="#D0D4D8"/>
<path opacity="0.5" d="M2847.45 1024.17H2969.74C2973.54 1024.17 2976.53 1027.22 2976.53 1031.11C2976.53 1034.99 2973.54 1038.04 2969.74 1038.04H2847.45C2843.66 1038.04 2840.66 1034.99 2840.66 1031.11C2840.66 1027.22 2843.66 1024.17 2847.45 1024.17Z" fill="#D0D4D8"/>
<path opacity="0.5" d="M2793.11 1024.17H2820.29C2824.09 1024.17 2827.08 1027.22 2827.08 1031.11C2827.08 1034.99 2824.09 1038.04 2820.29 1038.04H2793.11C2789.31 1038.04 2786.32 1034.99 2786.32 1031.11C2786.32 1027.22 2789.31 1024.17 2793.11 1024.17Z" fill="#D0D4D8"/>
<path opacity="0.5" d="M2901.81 1079.67H2969.74C2973.54 1079.67 2976.53 1082.72 2976.53 1086.61C2976.53 1090.49 2973.54 1093.54 2969.74 1093.54H2901.81C2898.01 1093.54 2895.02 1090.49 2895.02 1086.61C2895.02 1082.72 2898.01 1079.67 2901.81 1079.67Z" fill="#D0D4D8"/>
<path opacity="0.5" d="M2793.11 1079.67H2874.65C2878.44 1079.67 2881.44 1082.72 2881.44 1086.61C2881.44 1090.49 2878.44 1093.54 2874.65 1093.54H2793.11C2789.31 1093.54 2786.32 1090.49 2786.32 1086.61C2786.32 1082.72 2789.31 1079.67 2793.11 1079.67Z" fill="#D0D4D8"/>
<path opacity="0.5" d="M2793.11 885.421H2833.87C2837.67 885.421 2840.66 888.472 2840.66 892.356C2840.66 896.243 2837.67 899.294 2833.87 899.294H2793.11C2789.31 899.294 2786.32 896.243 2786.32 892.356C2786.32 888.472 2789.31 885.421 2793.11 885.421Z" fill="#D0D4D8"/>
<path opacity="0.5" d="M2793.11 913.169H2833.87C2837.67 913.169 2840.66 916.223 2840.66 920.107C2840.66 923.994 2837.67 927.044 2833.87 927.044H2793.11C2789.31 927.044 2786.32 923.994 2786.32 920.107C2786.32 916.223 2789.31 913.169 2793.11 913.169Z" fill="#D0D4D8"/>
<path d="M1019.57 2048.74C1038.45 2048.74 1053.76 2033.53 1053.76 2014.77C1053.76 1996.01 1038.45 1980.8 1019.57 1980.8C1000.68 1980.8 985.374 1996.01 985.374 2014.77C985.374 2033.53 1000.68 2048.74 1019.57 2048.74Z" fill="#61DAFB"/>
<path d="M1019.49 2084.84C1120.82 2084.84 1202.97 2053.49 1202.97 2014.82C1202.97 1976.15 1120.82 1944.8 1019.49 1944.8C918.15 1944.8 836 1976.15 836 2014.82C836 2053.49 918.15 2084.84 1019.49 2084.84Z" stroke="#61DAFB" stroke-width="5"/>
<path d="M958.814 2049.83C1009.48 2137.54 1077.72 2192.97 1111.23 2173.63C1144.74 2154.3 1130.83 2067.52 1080.16 1979.81C1029.49 1892.1 961.252 1836.67 927.743 1856.01C894.235 1875.34 908.145 1962.12 958.814 2049.83Z" stroke="#61DAFB" stroke-width="5"/>
<path d="M958.814 1979.81C908.145 2067.52 894.235 2154.3 927.743 2173.63C961.252 2192.97 1029.49 2137.54 1080.16 2049.83C1130.83 1962.12 1144.74 1875.34 1111.23 1856.01C1077.72 1836.67 1009.48 1892.1 958.814 1979.81Z" stroke="#61DAFB" stroke-width="5"/>
<path d="M1008 132H719V398H1008V132Z" fill="#F7DF1E"/>
<path d="M872.518 291.776C878.263 301.194 885.737 308.119 898.959 308.119C910.067 308.119 917.162 302.546 917.162 294.846C917.162 285.618 909.873 282.348 897.647 276.981L890.946 274.095C871.602 265.821 858.75 255.457 858.75 233.547C858.75 213.364 874.069 198 898.009 198C915.054 198 927.306 203.955 936.135 219.546L915.262 233.003C910.666 224.729 905.706 221.469 898.009 221.469C890.158 221.469 885.181 226.47 885.181 233.003C885.181 241.076 890.161 244.343 901.663 249.343L908.364 252.224C931.14 262.03 944 272.027 944 294.499C944 318.729 925.041 332 899.581 332C874.686 332 858.602 320.092 850.732 304.482L872.518 291.776ZM777.821 294.11C782.032 301.61 785.862 307.95 795.073 307.95C803.88 307.95 809.436 304.491 809.436 291.04V199.536H836.242V291.403C836.242 319.268 819.968 331.951 796.214 331.951C774.751 331.951 762.321 320.8 756 307.372L777.821 294.11Z" fill="black"/>
<path d="M312.651 1607.78C323.233 1606.67 331.257 1597.47 330.893 1586.43C330.529 1575.39 321.407 1566.55 310.463 1566.55H309.732C298.422 1566.92 289.666 1576.49 290.033 1587.9C290.397 1593.42 292.584 1598.21 295.87 1601.52C283.465 1626.18 264.494 1644.22 236.036 1659.31C216.698 1669.62 196.635 1673.3 176.568 1670.72C160.149 1668.51 147.38 1661.15 139.352 1649C127.678 1630.97 126.585 1611.46 136.436 1591.95C143.369 1577.96 154.312 1567.66 161.244 1562.5C159.785 1557.72 157.595 1549.62 156.502 1543.73C103.601 1582.38 109.074 1634.65 125.126 1659.31C137.164 1677.72 161.609 1689.13 188.607 1689.13C195.904 1689.13 203.2 1688.39 210.497 1686.55C257.197 1677.35 292.587 1649.37 312.651 1607.78ZM376.863 1562.13C349.136 1529.37 308.276 1511.34 261.575 1511.34H255.738C252.455 1504.71 245.523 1500.29 237.859 1500.29H237.131C225.821 1500.66 217.065 1510.23 217.429 1521.64C217.793 1532.69 226.916 1541.52 237.859 1541.52H238.59C246.615 1541.15 253.548 1536 256.466 1529.01H263.034C290.761 1529.01 317.029 1537.1 340.744 1552.93C358.987 1565.08 372.121 1580.91 379.417 1600.05C385.619 1615.51 385.255 1630.6 378.686 1643.48C368.471 1662.99 351.326 1673.67 328.706 1673.67C314.11 1673.67 300.248 1669.25 292.952 1665.94C288.938 1669.62 281.641 1675.51 276.532 1679.19C292.22 1686.55 308.276 1690.6 323.597 1690.6C358.62 1690.6 384.526 1671.09 394.377 1651.58C404.957 1630.23 404.225 1593.42 376.863 1562.13ZM191.526 1614.03C191.89 1625.08 201.013 1633.91 211.956 1633.91H212.687C223.997 1633.54 232.753 1623.97 232.386 1612.56C232.022 1601.52 222.902 1592.68 211.956 1592.68H211.228C210.497 1592.68 209.401 1592.68 208.673 1593.05C193.716 1568.02 187.512 1540.78 189.702 1511.34C191.162 1489.25 198.458 1470.11 211.228 1454.28C221.807 1440.66 242.237 1434.04 256.102 1433.67C294.775 1432.93 311.191 1481.52 312.287 1501.03C317.029 1502.13 325.056 1504.71 330.529 1506.55C326.151 1446.92 289.666 1416 254.643 1416C221.807 1416 191.526 1439.93 179.484 1475.26C162.704 1522.38 173.647 1567.66 194.08 1603.36C192.257 1605.94 191.162 1609.99 191.526 1614.04V1614.03Z" fill="#764ABC"/>
<path d="M1797 1867H2088V2143H1797V1867Z" fill="#017ACB"/>
<path d="M1918.57 1941.96H1933.6V1968.61H1892.98V2087.18L1891.9 2087.48C1890.43 2087.88 1871.1 2087.88 1866.94 2087.43L1863.62 2087.13V1968.61H1823V1941.96L1835.87 1941.81C1842.92 1941.71 1861.02 1941.71 1876.1 1941.81C1891.17 1941.91 1910.25 1941.96 1918.57 1941.96ZM2033.23 2074.61C2027.26 2081.09 2020.85 2084.71 2010.18 2087.68C2005.53 2088.99 2004.75 2089.04 1994.28 2088.99C1983.8 2088.94 1982.97 2088.94 1977.88 2087.58C1964.72 2084.11 1954.1 2077.32 1946.86 2067.72C1944.8 2065 1941.43 2059.37 1941.43 2058.67C1941.43 2058.46 1941.91 2058.01 1942.55 2057.71C1943.19 2057.41 1944.51 2056.56 1945.59 2055.9C1946.66 2055.25 1948.62 2054.04 1949.94 2053.34C1951.26 2052.63 1955.08 2050.32 1958.4 2048.26C1961.73 2046.2 1964.77 2044.54 1965.11 2044.54C1965.45 2044.54 1966.09 2045.24 1966.58 2046.1C1969.51 2051.18 1976.37 2057.66 1981.21 2059.87C1984.2 2061.18 1990.8 2062.64 1993.98 2062.64C1996.92 2062.64 2002.3 2061.33 2005.19 2059.97C2008.27 2058.52 2009.84 2057.06 2011.7 2054.14C2012.97 2052.08 2013.12 2051.53 2013.07 2047.6C2013.07 2043.98 2012.87 2042.98 2011.89 2041.32C2009.15 2036.69 2005.43 2034.28 1990.36 2027.44C1974.8 2020.35 1967.8 2016.13 1962.13 2010.44C1957.92 2006.22 1957.09 2005.07 1954.44 1999.79C1951.02 1993 1950.57 1990.78 1950.53 1980.68C1950.48 1973.59 1950.62 1971.28 1951.36 1968.86C1952.39 1965.24 1955.71 1958.25 1957.23 1956.49C1960.36 1952.72 1961.49 1951.57 1963.69 1949.7C1970.35 1944.07 1980.72 1940.35 1990.65 1940C1991.78 1940 1995.5 1940.2 1998.97 1940.45C2008.96 1941.31 2015.76 1943.82 2022.32 1949.2C2027.26 1953.22 2034.74 1962.68 2034.01 1963.93C2033.52 1964.69 2014 1978.06 2012.72 1978.47C2011.94 1978.72 2011.4 1978.41 2010.33 1977.11C2003.67 1968.91 2000.98 1967.15 1994.52 1966.75C1989.92 1966.45 1987.47 1967 1984.39 1969.11C1981.16 1971.33 1979.59 1974.69 1979.59 1979.37C1979.64 1986.21 1982.19 1989.43 1991.58 1994.21C1997.65 1997.27 2002.84 1999.79 2003.23 1999.79C2003.82 1999.79 2016.39 2006.22 2019.67 2008.23C2034.94 2017.43 2041.16 2026.89 2042.77 2043.18C2043.95 2055.45 2040.57 2066.66 2033.23 2074.61Z" fill="white"/>
<path d="M1864.57 1751.67H2011.43V1746H1864.57V1751.67ZM2189.35 1930.29V2077.71H2195V1930.29H2189.35ZM2011.43 2256.33H1864.57V2262H2011.43V2256.33ZM1686.65 2077.71V1930.29H1681V2077.71H1686.65ZM1864.57 2256.33C1821.89 2256.33 1790.16 2256.32 1765.78 2253.03C1741.49 2249.75 1724.91 2243.26 1712.29 2230.59L1708.3 2234.6C1722.14 2248.5 1740.11 2255.29 1765.03 2258.65C1789.87 2262.01 1822.05 2262 1864.57 2262V2256.33ZM1681 2077.71C1681 2120.4 1680.99 2152.7 1684.33 2177.64C1687.68 2202.66 1694.45 2220.69 1708.3 2234.6L1712.29 2230.59C1699.67 2217.92 1693.2 2201.28 1689.93 2176.89C1686.65 2152.41 1686.65 2120.56 1686.65 2077.71H1681ZM2189.35 2077.71C2189.35 2120.56 2189.35 2152.41 2186.07 2176.89C2182.8 2201.28 2176.33 2217.92 2163.71 2230.59L2167.7 2234.6C2181.55 2220.69 2188.32 2202.66 2191.67 2177.64C2195.01 2152.7 2195 2120.4 2195 2077.71H2189.35ZM2011.43 2262C2053.95 2262 2086.13 2262.01 2110.97 2258.65C2135.89 2255.29 2153.86 2248.5 2167.7 2234.6L2163.71 2230.59C2151.09 2243.26 2134.51 2249.75 2110.22 2253.03C2085.84 2256.32 2054.11 2256.33 2011.43 2256.33V2262ZM2011.43 1751.67C2054.11 1751.67 2085.84 1751.68 2110.22 1754.96C2134.51 1758.25 2151.09 1764.74 2163.71 1777.41L2167.7 1773.4C2153.86 1759.5 2135.89 1752.71 2110.97 1749.35C2086.13 1745.99 2053.95 1746 2011.43 1746V1751.67ZM2195 1930.29C2195 1887.6 2195.01 1855.3 2191.67 1830.36C2188.32 1805.34 2181.55 1787.3 2167.7 1773.4L2163.71 1777.41C2176.33 1790.08 2182.8 1806.72 2186.07 1831.11C2189.35 1855.58 2189.35 1887.44 2189.35 1930.29H2195ZM1864.57 1746C1822.05 1746 1789.87 1745.99 1765.03 1749.35C1740.11 1752.71 1722.14 1759.5 1708.3 1773.4L1712.29 1777.41C1724.91 1764.74 1741.49 1758.25 1765.78 1754.96C1790.16 1751.68 1821.89 1751.67 1864.57 1751.67V1746ZM1686.65 1930.29C1686.65 1887.44 1686.65 1855.58 1689.93 1831.11C1693.2 1806.72 1699.67 1790.08 1712.29 1777.41L1708.3 1773.4C1694.45 1787.3 1687.68 1805.34 1684.33 1830.36C1680.99 1855.3 1681 1887.6 1681 1930.29H1686.65Z" fill="#D9D9D9"/>
<defs>
<filter id="filter0_i_22_102" x="1690" y="1733" width="514" height="539" filterUnits="userSpaceOnUse" color-interpolation-filters="sRGB">
<feFlood flood-opacity="0" result="BackgroundImageFix"/>
<feBlend mode="normal" in="SourceGraphic" in2="BackgroundImageFix" result="shape"/>
<feColorMatrix in="SourceAlpha" type="matrix" values="0 0 0 0 0 0 0 0 0 0 0 0 0 0 0 0 0 0 127 0" result="hardAlpha"/>
<feOffset dy="4"/>
<feGaussianBlur stdDeviation="20"/>
<feComposite in2="hardAlpha" operator="arithmetic" k2="-1" k3="1"/>
<feColorMatrix type="matrix" values="0 0 0 0 0.0367917 0 0 0 0 0.0348958 0 0 0 0 0.0484375 0 0 0 0.1 0"/>
<feBlend mode="normal" in2="shape" result="effect1_innerShadow_22_102"/>
</filter>
<filter id="filter1_i_22_102" x="11" y="439" width="519.286" height="534.302" filterUnits="userSpaceOnUse" color-interpolation-filters="sRGB">
<feFlood flood-opacity="0" result="BackgroundImageFix"/>
<feBlend mode="normal" in="SourceGraphic" in2="BackgroundImageFix" result="shape"/>
<feColorMatrix in="SourceAlpha" type="matrix" values="0 0 0 0 0 0 0 0 0 0 0 0 0 0 0 0 0 0 127 0" result="hardAlpha"/>
<feOffset dy="4"/>
<feGaussianBlur stdDeviation="20"/>
<feComposite in2="hardAlpha" operator="arithmetic" k2="-1" k3="1"/>
<feColorMatrix type="matrix" values="0 0 0 0 0.0367917 0 0 0 0 0.0348958 0 0 0 0 0.0484375 0 0 0 0.1 0"/>
<feBlend mode="normal" in2="shape" result="effect1_innerShadow_22_102"/>
</filter>
<filter id="filter2_i_22_102" x="1434.22" y="275.964" width="519.285" height="534.302" filterUnits="userSpaceOnUse" color-interpolation-filters="sRGB">
<feFlood flood-opacity="0" result="BackgroundImageFix"/>
<feBlend mode="normal" in="SourceGraphic" in2="BackgroundImageFix" result="shape"/>
<feColorMatrix in="SourceAlpha" type="matrix" values="0 0 0 0 0 0 0 0 0 0 0 0 0 0 0 0 0 0 127 0" result="hardAlpha"/>
<feOffset dy="4"/>
<feGaussianBlur stdDeviation="20"/>
<feComposite in2="hardAlpha" operator="arithmetic" k2="-1" k3="1"/>
<feColorMatrix type="matrix" values="0 0 0 0 0.0367917 0 0 0 0 0.0348958 0 0 0 0 0.0484375 0 0 0 0.1 0"/>
<feBlend mode="normal" in2="shape" result="effect1_innerShadow_22_102"/>
</filter>
<filter id="filter3_i_22_102" x="716.196" y="949.371" width="519.285" height="534.302" filterUnits="userSpaceOnUse" color-interpolation-filters="sRGB">
<feFlood flood-opacity="0" result="BackgroundImageFix"/>
<feBlend mode="normal" in="SourceGraphic" in2="BackgroundImageFix" result="shape"/>
<feColorMatrix in="SourceAlpha" type="matrix" values="0 0 0 0 0 0 0 0 0 0 0 0 0 0 0 0 0 0 127 0" result="hardAlpha"/>
<feOffset dy="4"/>
<feGaussianBlur stdDeviation="20"/>
<feComposite in2="hardAlpha" operator="arithmetic" k2="-1" k3="1"/>
<feColorMatrix type="matrix" values="0 0 0 0 0.0367917 0 0 0 0 0.0348958 0 0 0 0 0.0484375 0 0 0 0.1 0"/>
<feBlend mode="normal" in2="shape" result="effect1_innerShadow_22_102"/>
</filter>
<filter id="filter4_i_22_102" x="759" y="1732" width="514" height="518" filterUnits="userSpaceOnUse" color-interpolation-filters="sRGB">
<feFlood flood-opacity="0" result="BackgroundImageFix"/>
<feBlend mode="normal" in="SourceGraphic" in2="BackgroundImageFix" result="shape"/>
<feColorMatrix in="SourceAlpha" type="matrix" values="0 0 0 0 0 0 0 0 0 0 0 0 0 0 0 0 0 0 127 0" result="hardAlpha"/>
<feOffset dy="4"/>
<feGaussianBlur stdDeviation="20"/>
<feComposite in2="hardAlpha" operator="arithmetic" k2="-1" k3="1"/>
<feColorMatrix type="matrix" values="0 0 0 0 0.0367917 0 0 0 0 0.0348958 0 0 0 0 0.0484375 0 0 0 0.1 0"/>
<feBlend mode="normal" in2="shape" result="effect1_innerShadow_22_102"/>
</filter>
<filter id="filter5_i_22_102" x="1582" y="1010" width="539.578" height="534.303" filterUnits="userSpaceOnUse" color-interpolation-filters="sRGB">
<feFlood flood-opacity="0" result="BackgroundImageFix"/>
<feBlend mode="normal" in="SourceGraphic" in2="BackgroundImageFix" result="shape"/>
<feColorMatrix in="SourceAlpha" type="matrix" values="0 0 0 0 0 0 0 0 0 0 0 0 0 0 0 0 0 0 127 0" result="hardAlpha"/>
<feOffset dy="4"/>
<feGaussianBlur stdDeviation="20"/>
<feComposite in2="hardAlpha" operator="arithmetic" k2="-1" k3="1"/>
<feColorMatrix type="matrix" values="0 0 0 0 0.0367917 0 0 0 0 0.0348958 0 0 0 0 0.0484375 0 0 0 0.1 0"/>
<feBlend mode="normal" in2="shape" result="effect1_innerShadow_22_102"/>
</filter>
<filter id="filter6_i_22_102" x="603.641" y="0.888428" width="519.284" height="534.302" filterUnits="userSpaceOnUse" color-interpolation-filters="sRGB">
<feFlood flood-opacity="0" result="BackgroundImageFix"/>
<feBlend mode="normal" in="SourceGraphic" in2="BackgroundImageFix" result="shape"/>
<feColorMatrix in="SourceAlpha" type="matrix" values="0 0 0 0 0 0 0 0 0 0 0 0 0 0 0 0 0 0 127 0" result="hardAlpha"/>
<feOffset dy="4"/>
<feGaussianBlur stdDeviation="20"/>
<feComposite in2="hardAlpha" operator="arithmetic" k2="-1" k3="1"/>
<feColorMatrix type="matrix" values="0 0 0 0 0.0367917 0 0 0 0 0.0348958 0 0 0 0 0.0484375 0 0 0 0.1 0"/>
<feBlend mode="normal" in2="shape" result="effect1_innerShadow_22_102"/>
</filter>
<filter id="filter7_i_22_102" x="2193.67" y="12.5435" width="519.284" height="534.302" filterUnits="userSpaceOnUse" color-interpolation-filters="sRGB">
<feFlood flood-opacity="0" result="BackgroundImageFix"/>
<feBlend mode="normal" in="SourceGraphic" in2="BackgroundImageFix" result="shape"/>
<feColorMatrix in="SourceAlpha" type="matrix" values="0 0 0 0 0 0 0 0 0 0 0 0 0 0 0 0 0 0 127 0" result="hardAlpha"/>
<feOffset dy="4"/>
<feGaussianBlur stdDeviation="20"/>
<feComposite in2="hardAlpha" operator="arithmetic" k2="-1" k3="1"/>
<feColorMatrix type="matrix" values="0 0 0 0 0.0367917 0 0 0 0 0.0348958 0 0 0 0 0.0484375 0 0 0 0.1 0"/>
<feBlend mode="normal" in2="shape" result="effect1_innerShadow_22_102"/>
</filter>
<filter id="filter8_i_22_102" x="2594" y="1499" width="519.279" height="534.303" filterUnits="userSpaceOnUse" color-interpolation-filters="sRGB">
<feFlood flood-opacity="0" result="BackgroundImageFix"/>
<feBlend mode="normal" in="SourceGraphic" in2="BackgroundImageFix" result="shape"/>
<feColorMatrix in="SourceAlpha" type="matrix" values="0 0 0 0 0 0 0 0 0 0 0 0 0 0 0 0 0 0 127 0" result="hardAlpha"/>
<feOffset dy="4"/>
<feGaussianBlur stdDeviation="20"/>
<feComposite in2="hardAlpha" operator="arithmetic" k2="-1" k3="1"/>
<feColorMatrix type="matrix" values="0 0 0 0 0.0367917 0 0 0 0 0.0348958 0 0 0 0 0.0484375 0 0 0 0.1 0"/>
<feBlend mode="normal" in2="shape" result="effect1_innerShadow_22_102"/>
</filter>
<filter id="filter9_i_22_102" x="0" y="1301" width="519.285" height="539.748" filterUnits="userSpaceOnUse" color-interpolation-filters="sRGB">
<feFlood flood-opacity="0" result="BackgroundImageFix"/>
<feBlend mode="normal" in="SourceGraphic" in2="BackgroundImageFix" result="shape"/>
<feColorMatrix in="SourceAlpha" type="matrix" values="0 0 0 0 0 0 0 0 0 0 0 0 0 0 0 0 0 0 127 0" result="hardAlpha"/>
<feOffset dy="4"/>
<feGaussianBlur stdDeviation="20"/>
<feComposite in2="hardAlpha" operator="arithmetic" k2="-1" k3="1"/>
<feColorMatrix type="matrix" values="0 0 0 0 0.0367917 0 0 0 0 0.0348958 0 0 0 0 0.0484375 0 0 0 0.1 0"/>
<feBlend mode="normal" in2="shape" result="effect1_innerShadow_22_102"/>
</filter>
<filter id="filter10_i_22_102" x="2574.72" y="683.889" width="519.279" height="534.302" filterUnits="userSpaceOnUse" color-interpolation-filters="sRGB">
<feFlood flood-opacity="0" result="BackgroundImageFix"/>
<feBlend mode="normal" in="SourceGraphic" in2="BackgroundImageFix" result="shape"/>
<feColorMatrix in="SourceAlpha" type="matrix" values="0 0 0 0 0 0 0 0 0 0 0 0 0 0 0 0 0 0 127 0" result="hardAlpha"/>
<feOffset dy="4"/>
<feGaussianBlur stdDeviation="20"/>
<feComposite in2="hardAlpha" operator="arithmetic" k2="-1" k3="1"/>
<feColorMatrix type="matrix" values="0 0 0 0 0.0367917 0 0 0 0 0.0348958 0 0 0 0 0.0484375 0 0 0 0.1 0"/>
<feBlend mode="normal" in2="shape" result="effect1_innerShadow_22_102"/>
</filter>
</defs>
</svg>
