<svg width="8391" height="1979" viewBox="0 0 8391 1979" fill="none" xmlns="http://www.w3.org/2000/svg">
<g clip-path="url(#clip0_17_42)">
<rect width="8391" height="1979" fill="white"/>
<g clip-path="url(#clip1_17_42)">
<path d="M1698.56 705.975L1855.09 692.801C1858.66 726.124 1865.21 750.923 1875.92 768.747C1893.18 796.646 1916.98 810.595 1948.53 810.595C1971.74 810.595 1990.19 803.621 2002.69 788.896C2014.59 777.272 2021.73 758.673 2021.73 739.299C2021.73 720.7 2015.18 702.875 2003.88 691.251C1991.97 677.302 1964 663.352 1919.96 650.953C1847.95 630.029 1796.17 602.13 1765.82 566.482C1735.46 533.158 1718.2 484.336 1719.39 432.413C1719.39 396.765 1727.73 361.117 1743.2 331.668C1761.05 298.344 1785.46 271.996 1814.62 257.271C1846.16 239.447 1890.2 230.148 1945.55 230.148C2013.4 230.148 2065.18 246.422 2100.89 279.745C2136.6 312.294 2158.02 364.991 2164.57 437.063L2009.83 448.687C2005.66 417.689 1997.33 395.215 1983.64 380.491C1969.95 365.766 1952.1 358.792 1928.89 358.792C1909.84 358.792 1895.56 364.216 1886.04 374.291C1877.11 383.59 1871.16 397.54 1871.75 413.039C1871.75 424.664 1876.51 435.513 1883.66 442.488C1891.39 451.787 1909.84 460.312 1939.01 468.061C2011.02 488.211 2062.2 508.36 2093.74 529.284C2125.29 550.208 2147.9 575.781 2161.59 606.005C2175.88 637.004 2183.02 672.652 2182.42 709.075C2182.42 752.473 2172.9 795.871 2153.86 832.294C2134.22 870.268 2106.84 899.716 2074.7 917.54C2040.78 936.914 1997.93 946.989 1946.74 946.989C1856.28 946.989 1793.79 924.515 1758.67 878.792C1723.56 833.069 1702.73 775.722 1698.56 705.975ZM37.4946 935.364V242.547H311.86C362.448 242.547 401.728 247.972 428.509 259.596C454.696 270.446 477.907 292.92 493.381 323.143C510.64 356.467 518.973 395.215 518.377 435.513C520.163 503.71 493.381 568.807 447.554 602.905C429.7 616.08 410.06 625.379 389.825 630.029C404.703 635.454 419.582 644.753 432.675 655.603C442.793 666.452 451.125 678.852 458.862 692.026C467.789 705.2 475.526 719.925 482.073 735.424L561.823 936.139H374.946L286.863 723.024C275.555 695.901 266.033 678.077 257.106 669.552C245.203 658.702 230.919 653.278 216.635 653.278H202.352V934.589H37.4946V935.364ZM202.352 523.084H271.984C286.863 521.534 301.147 518.434 315.431 513.784C326.143 511.459 335.666 503.71 342.212 492.085C358.282 464.187 355.901 424.664 336.261 400.64C325.548 389.015 304.718 382.815 274.96 382.815H202.352V523.084ZM0 1528.99L156.525 1515.81C160.096 1549.14 166.643 1573.93 177.355 1591.76C194.02 1619.66 218.421 1634.38 249.964 1634.38C273.175 1634.38 291.624 1627.41 304.123 1612.68C316.026 1600.28 323.168 1582.46 323.168 1563.08C323.168 1544.49 316.621 1526.66 305.313 1515.04C293.41 1501.09 265.438 1487.14 220.801 1474.74C148.788 1453.81 97.0098 1425.92 66.657 1390.27C36.3043 1356.94 19.0449 1308.12 20.2352 1256.2C20.2352 1220.55 28.5673 1184.9 44.0412 1155.45C61.8958 1122.13 86.297 1095.78 115.459 1081.06C147.003 1063.23 191.044 1053.93 246.393 1053.93C314.24 1053.93 366.018 1070.21 401.728 1103.53C437.437 1136.85 458.267 1188.78 464.814 1260.85L310.074 1272.47C305.908 1241.47 297.576 1219 283.888 1204.28C270.794 1189.55 252.344 1182.58 229.134 1183.35C210.089 1183.35 195.805 1188.78 186.283 1199.63C176.76 1208.93 171.404 1222.88 171.999 1238.38C171.999 1250 176.76 1260.85 183.902 1267.82C191.639 1277.12 210.089 1285.65 239.251 1293.4C311.265 1313.55 362.448 1333.7 393.991 1354.62C425.534 1375.54 448.149 1401.12 461.838 1431.34C476.122 1462.34 483.263 1497.99 483.263 1533.64C483.263 1577.03 473.146 1619.66 454.696 1656.08C435.056 1694.05 407.679 1723.5 375.541 1741.33C341.617 1760.7 298.766 1770.77 247.583 1770.77C157.12 1770.77 94.6292 1748.3 59.5152 1702.58C24.4012 1656.08 4.76122 1598.73 0 1528.99H0Z" fill="#32384D"/>
<path d="M791.552 1474.74L935.579 1531.31C927.842 1578.58 911.773 1623.53 889.752 1663.06C869.517 1697.93 842.735 1725.05 812.383 1742.88C781.435 1760.7 742.155 1770 694.543 1770C636.813 1770 589.201 1759.15 552.896 1737.45C515.997 1715.75 484.454 1677 457.672 1621.98C430.89 1566.96 417.797 1496.44 417.797 1410.42C417.797 1295.72 441.008 1207.38 488.025 1146.15C535.042 1084.93 601.104 1053.93 686.806 1053.93C754.058 1053.93 806.431 1071.76 845.116 1106.63C883.206 1142.28 911.773 1196.53 930.818 1269.37L785.601 1311.22C782.03 1294.95 776.674 1278.67 769.532 1264.72C760.604 1248.45 749.297 1236.05 735.608 1226.75C721.92 1217.45 706.446 1213.58 690.972 1213.58C653.477 1213.58 624.91 1232.95 605.27 1272.47C590.391 1301.15 582.654 1346.87 582.654 1408.87C582.654 1485.59 591.581 1538.29 609.436 1566.96C627.29 1595.63 652.287 1609.58 685.02 1609.58C716.563 1609.58 740.369 1597.96 756.438 1575.48C772.508 1551.46 784.411 1518.14 791.552 1474.74ZM1127.81 1065.56H1292.08V1308.12H1471.81V1065.56H1637.26V1758.38H1471.81V1477.84H1292.08V1758.38H1127.81V1065.56V1065.56Z" fill="#32384D"/>
<path d="M1614.65 1411.97C1614.65 1298.82 1639.05 1210.48 1687.26 1147.7C1735.46 1084.93 1803.31 1053.16 1889.61 1053.16C1978.29 1053.16 2046.13 1084.16 2094.34 1146.15C2142.55 1208.15 2166.35 1294.95 2166.35 1406.54C2166.35 1487.91 2155.64 1553.79 2134.81 1605.71C2114.58 1656.86 2083.03 1698.7 2044.35 1726.6C2004.47 1755.28 1955.07 1770 1896.15 1770C1836.04 1770 1786.65 1757.6 1747.37 1732.8C1706.9 1706.45 1673.57 1665.38 1651.55 1615.01C1627.15 1560.76 1614.65 1493.34 1614.65 1411.97ZM1778.91 1412.74C1778.91 1482.49 1789.03 1532.86 1808.67 1563.86C1828.31 1594.08 1855.68 1609.58 1890.2 1609.58C1925.32 1609.58 1952.69 1594.86 1972.33 1564.63C1991.97 1534.41 2001.5 1480.94 2001.5 1403.44C2001.5 1338.35 1991.38 1290.3 1971.14 1260.85C1950.91 1230.63 1923.53 1215.9 1889.01 1215.9C1858.66 1214.35 1829.5 1231.4 1809.26 1261.62C1789.03 1291.85 1778.91 1342.22 1778.91 1412.74V1412.74ZM2334.78 1411.97C2334.78 1298.82 2359.18 1210.48 2407.39 1147.7C2455.6 1084.93 2523.44 1053.16 2609.74 1053.16C2698.42 1053.16 2766.86 1084.16 2814.47 1146.15C2862.09 1208.15 2886.49 1294.95 2886.49 1406.54C2886.49 1487.91 2875.77 1553.79 2854.94 1605.71C2834.71 1656.86 2803.17 1698.7 2764.48 1726.6C2724.61 1755.28 2675.21 1770 2616.29 1770C2556.18 1770 2506.78 1757.6 2467.5 1732.8C2427.03 1706.45 2393.7 1665.38 2371.68 1615.01C2347.28 1560.76 2334.78 1493.34 2334.78 1411.97V1411.97ZM2499.04 1412.74C2499.04 1482.49 2509.16 1532.86 2528.8 1563.86C2548.44 1594.08 2575.82 1609.58 2610.34 1609.58C2645.45 1609.58 2672.83 1594.86 2692.47 1564.63C2712.11 1534.41 2721.63 1480.94 2721.63 1403.44C2721.63 1338.35 2711.51 1290.3 2691.28 1260.85C2671.04 1230.63 2643.67 1215.9 2609.15 1215.9C2578.79 1214.35 2549.04 1231.4 2529.4 1261.62C2509.16 1291.85 2499.04 1342.22 2499.04 1412.74V1412.74Z" fill="#32384D"/>
<path d="M2869.23 1065.56H3033.49V1587.88H3290V1758.38H2868.63V1065.56H2869.23Z" fill="#32384D"/>
<path d="M2688.17 1025.58C2853.55 863.298 2904.55 588.212 2802.08 411.153C2699.61 234.095 2482.48 222.112 2317.1 384.39C2151.72 546.667 2100.73 821.753 2203.2 998.812C2305.67 1175.87 2522.8 1187.85 2688.17 1025.58Z" fill="white"/>
<path d="M2688.17 1025.58C2853.55 863.298 2904.55 588.212 2802.08 411.153C2699.61 234.095 2482.48 222.112 2317.1 384.39C2151.72 546.667 2100.73 821.753 2203.2 998.812C2305.67 1175.87 2522.8 1187.85 2688.17 1025.58Z" fill="white"/>
<path d="M2688.17 1025.58C2853.55 863.298 2904.55 588.212 2802.08 411.153C2699.61 234.095 2482.48 222.112 2317.1 384.39C2151.72 546.667 2100.73 821.753 2203.2 998.812C2305.67 1175.87 2522.8 1187.85 2688.17 1025.58Z" stroke="#32384D" stroke-width="4" stroke-miterlimit="10"/>
<path d="M2335.38 654.053L2394.89 599.805L2468.1 735.424C2480.59 757.123 2490.12 780.372 2497.26 805.945C2501.42 825.32 2500.23 846.244 2494.28 864.843C2486.55 888.092 2474.05 907.466 2457.38 921.415C2437.74 939.239 2421.08 949.314 2406.79 952.414C2393.11 955.513 2378.82 952.414 2365.73 944.664C2351.45 935.364 2338.95 922.19 2329.42 905.141L2380.61 843.144C2384.77 851.668 2390.13 859.418 2396.08 865.618C2400.25 869.492 2405.01 871.817 2410.37 871.817C2414.53 871.817 2418.7 869.492 2421.67 866.393C2427.62 861.743 2431.79 852.443 2431.2 843.144C2429.41 829.969 2425.24 816.795 2418.7 806.72L2335.38 654.053V654.053ZM2513.92 740.074L2568.08 684.276C2574.03 693.576 2581.77 700.55 2590.1 704.425C2602 709.075 2614.5 705.975 2624.62 695.901C2631.76 689.701 2637.71 681.176 2640.09 670.327C2643.67 656.378 2637.71 640.878 2627 636.228C2625.22 635.454 2623.43 634.679 2621.64 634.679C2614.5 633.904 2602 637.778 2583.55 647.853C2553.2 664.127 2529.4 670.327 2511.54 668.002C2494.28 665.677 2478.21 654.053 2468.69 634.679C2461.55 621.504 2457.98 606.005 2457.38 590.506C2457.38 572.681 2460.95 554.857 2468.69 540.133C2480 519.209 2493.69 501.385 2510.35 487.435C2535.35 464.962 2557.37 454.112 2576.41 454.112C2595.46 454.112 2613.31 465.737 2629.98 489.76L2576.41 544.783C2565.7 526.959 2545.46 523.084 2531.78 537.033L2529.99 539.358C2524.04 544.008 2519.87 550.982 2517.49 559.507C2515.71 565.707 2516.9 572.681 2519.87 578.106C2522.25 581.981 2525.83 585.081 2529.99 585.081C2534.75 585.856 2543.08 582.756 2554.99 575.781C2584.74 559.507 2607.36 550.208 2622.83 547.108C2635.93 544.008 2649.62 545.558 2662.11 552.532C2673.42 558.732 2682.95 569.582 2689.49 582.756C2697.82 598.255 2702.59 616.854 2703.18 636.228C2703.78 656.378 2699.61 675.752 2691.28 692.801C2680.56 713.725 2666.88 731.549 2650.81 745.498C2618.07 774.947 2591.29 787.346 2569.87 782.697C2546.66 778.047 2527.61 762.548 2513.92 740.074V740.074Z" fill="#32384D"/>
</g>
<g clip-path="url(#clip2_17_42)">
<path d="M7557.46 1353.19C7620.49 1346.43 7668.31 1290.09 7666.14 1222.48C7663.97 1154.88 7609.62 1100.79 7544.42 1100.79H7540.08C7472.69 1103.04 7420.53 1161.63 7422.71 1231.49C7424.88 1265.3 7437.92 1294.59 7457.48 1314.88C7383.58 1465.87 7270.56 1576.3 7101.03 1668.69C6985.83 1731.79 6866.29 1754.33 6746.75 1738.56C6648.94 1725.04 6572.87 1679.97 6525.04 1605.59C6455.5 1495.17 6448.98 1375.72 6507.66 1256.29C6548.96 1170.65 6614.16 1107.55 6655.46 1075.99C6646.77 1046.7 6633.72 997.122 6627.2 961.068C6312.04 1197.69 6344.65 1517.7 6440.29 1668.69C6512.01 1781.38 6657.63 1851.24 6818.47 1851.24C6861.94 1851.24 6905.41 1846.73 6948.88 1835.47C7227.09 1779.12 7437.92 1607.85 7557.46 1353.19V1353.19ZM7940 1073.75C7774.81 873.174 7531.38 762.75 7253.17 762.75H7218.4C7198.84 722.186 7157.54 695.139 7111.9 695.139H7107.55C7040.17 697.394 6988.01 755.985 6990.18 825.852C6992.36 893.456 7046.69 947.544 7111.9 947.544H7116.24C7164.06 945.289 7205.36 913.738 7222.74 870.919H7261.87C7427.06 870.919 7583.54 920.497 7724.83 1017.4C7833.5 1091.77 7911.75 1188.68 7955.21 1305.86C7992.16 1400.52 7989.99 1492.91 7950.86 1571.79C7890.01 1691.23 7787.86 1756.59 7653.1 1756.59C7566.16 1756.59 7483.57 1729.54 7440.09 1709.26C7416.19 1731.79 7372.71 1767.85 7342.28 1790.39C7435.75 1835.46 7531.38 1860.25 7622.67 1860.25C7831.32 1860.25 7985.64 1740.81 8044.33 1621.37C8107.36 1490.66 8103.01 1265.3 7940 1073.75V1073.75ZM6835.86 1391.49C6838.04 1459.11 6892.37 1513.19 6957.58 1513.19H6961.93C7029.3 1510.94 7081.47 1452.34 7079.29 1382.48C7077.12 1314.87 7022.78 1260.79 6957.58 1260.79H6953.23C6948.88 1260.79 6942.36 1260.79 6938.02 1263.04C6848.9 1109.79 6811.96 943.034 6825 762.743C6833.69 627.527 6877.16 510.338 6953.23 413.431C7016.26 330.048 7137.98 289.483 7220.57 287.235C7450.96 282.725 7548.76 580.198 7555.29 699.642C7583.54 706.4 7631.36 722.179 7663.97 733.448C7637.88 368.37 7420.53 179.066 7211.88 179.066C7016.26 179.066 6835.86 325.551 6764.13 541.896C6664.15 830.355 6729.36 1107.55 6851.07 1326.15C6840.21 1341.92 6833.69 1366.71 6835.86 1391.5V1391.49Z" fill="#32384D"/>
</g>
<path d="M5435.79 747.763C5413.63 740.681 5391.31 734.085 5368.83 727.976C5372.56 713.785 5376 699.512 5379.15 685.159C5429.86 454.447 5396.7 268.58 5283.54 207.395C5175.19 148.683 4997.5 209.868 4818.24 356.161C4800.62 370.596 4783.36 385.463 4766.45 400.763C4755.19 390.599 4743.63 380.652 4731.78 370.92C4543.9 214.491 4355.59 148.602 4242.56 209.99C4134.21 268.823 4102.01 443.54 4147.65 662.209C4152.21 683.834 4157.34 705.365 4163.03 726.8C4136.38 733.896 4110.63 741.478 4086.02 749.507C3866.02 821.477 3725.34 934.319 3725.34 1051.34C3725.34 1172.25 3876.34 1293.48 4105.74 1367C4124.34 1372.91 4143.13 1378.42 4162.08 1383.5C4155.93 1406.45 4150.48 1429.65 4145.74 1453.12C4102.4 1668.02 4136.21 1838.6 4244.34 1897.06C4356.03 1957.44 4543.38 1895.4 4726.02 1745.78C4740.46 1733.94 4754.91 1721.44 4769.36 1708.28C4787.62 1724.79 4806.4 1740.82 4825.7 1756.37C5002.53 1899.01 5177.14 1956.63 5285.1 1898C5396.7 1837.42 5432.98 1654.15 5385.87 1431.18C5382.25 1414.15 5378.09 1396.77 5373.38 1379.04C5386.56 1375.39 5399.46 1371.62 5412.09 1367.72C5650.46 1293.65 5805.74 1173.87 5805.74 1051.46C5805.66 933.873 5660.47 820.301 5435.79 747.763ZM4876.71 419.009C5030.26 293.679 5173.8 244.212 5239.25 279.568C5308.89 317.236 5335.98 469.125 5292.21 668.332C5289.32 681.307 5286.2 694.241 5282.85 707.135C5191.21 687.635 5098.29 673.873 5004.69 665.94C4951.1 593.721 4892.36 524.972 4828.86 460.164C4844.41 446.054 4860.33 432.335 4876.62 419.009H4876.71ZM4339.6 1151.33C4358.41 1185.39 4378.07 1219.03 4398.58 1252.25C4419.47 1286.14 4441.25 1319.54 4463.9 1352.44C4399.5 1345.89 4335.5 1336.24 4272.16 1323.53C4290.54 1267.9 4313.16 1210.12 4339.6 1151.33ZM4339.6 955.363C4313.6 897.827 4291.58 841.224 4273.51 786.566C4332.88 774.119 4396.16 763.941 4462.12 756.237C4440.02 788.513 4418.75 821.261 4398.32 854.482C4377.9 887.704 4358.28 921.331 4339.47 955.363H4339.6ZM4386.84 1053.36C4414.23 999.924 4443.73 947.511 4475.34 896.124C4506.92 844.765 4540.54 794.581 4576.19 745.574C4638.08 741.195 4701.53 738.883 4765.63 738.883C4829.73 738.883 4893.57 741.195 4955.42 745.614C4990.69 794.514 5024.11 844.521 5055.66 895.638C5087.21 946.754 5117.1 998.924 5145.33 1052.15C5117.48 1105.78 5087.66 1158.41 5055.88 1210.04C5024.35 1261.4 4991.13 1311.73 4956.2 1361.03C4894.44 1365.09 4830.51 1367.32 4765.5 1367.32C4700.49 1367.32 4637.78 1365.41 4577.15 1361.72C4541.23 1312.55 4507.34 1262.15 4475.47 1210.52C4443.6 1158.89 4414.01 1106.51 4386.71 1053.36H4386.84ZM5132.81 1251.68C5153.75 1217.67 5173.86 1183.22 5193.13 1148.33C5219.55 1204.37 5242.87 1261.64 5263 1319.92C5198.91 1333.42 5134.12 1343.77 5068.88 1350.94C5090.9 1318.26 5112.2 1285.17 5132.81 1251.68ZM5192.27 955.404C5173.08 921.209 5153.13 887.42 5132.42 854.036C5112.19 821.112 5091.11 788.594 5069.18 756.481C5135.54 764.347 5199.2 774.808 5258.88 787.58C5239.69 844.529 5217.46 900.541 5192.27 955.404V955.404ZM4766.5 519.728C4809.77 563.968 4850.64 610.223 4888.93 658.317C4807.02 654.668 4725.05 654.668 4643.02 658.317C4683.46 608.282 4724.85 561.856 4766.5 519.728ZM4287.29 282.042C4356.89 244.252 4510.79 298.26 4673.01 433.16C4683.37 441.796 4693.82 450.838 4704.22 460.205C4640.39 525.003 4581.23 593.692 4527.13 665.818C4433.74 673.69 4341 687.234 4249.5 706.365C4244.21 686.47 4239.44 666.44 4235.19 646.274C4195.97 458.826 4221.93 317.52 4287.29 282.042ZM4185.83 1303.21C4168.49 1298.59 4151.37 1293.58 4134.47 1288.17C4033.06 1255.73 3949.28 1213.4 3891.77 1167.3C3840.28 1125.98 3814.19 1084.75 3814.19 1051.34C3814.19 980.34 3927.13 889.758 4115.49 828.33C4139.15 820.626 4163.02 813.584 4187.09 807.205C4215.06 891.311 4248.94 973.597 4288.5 1053.53C4248.47 1134.56 4214.17 1217.97 4185.83 1303.21V1303.21ZM4667.47 1683.02C4586.72 1749.19 4505.85 1796.1 4434.56 1819.74C4370.5 1840.95 4319.49 1841.56 4288.68 1824.89C4223.06 1789.41 4195.75 1652.4 4232.98 1468.65C4237.4 1447.02 4242.46 1425.4 4248.15 1403.77C4340.58 1422.4 4434.25 1435.12 4528.52 1441.84C4583.15 1514.35 4642.8 1583.42 4707.08 1648.63C4694.16 1660.51 4680.94 1671.95 4667.47 1683.02ZM4768.97 1588.87C4726.84 1546.25 4684.8 1499.1 4643.8 1448.41C4683.65 1449.87 4724.21 1450.6 4765.5 1450.6C4807.89 1450.6 4849.84 1449.75 4891.19 1448.01C4853.03 1496.87 4812.24 1543.89 4768.97 1588.87V1588.87ZM5308.63 1704.79C5296.24 1767.4 5271.32 1809.16 5240.5 1825.86C5174.93 1861.46 5034.73 1815.2 4883.56 1693.19C4866.22 1679.25 4848.89 1664.28 4831.25 1648.59C4894.28 1583.13 4952.53 1513.77 5005.6 1440.99C5100.39 1433.48 5194.52 1419.86 5287.31 1400.24C5291.56 1416.3 5295.32 1432.03 5298.58 1447.44C5319.43 1545.97 5322.42 1635.09 5308.63 1704.79V1704.79ZM5384.05 1288.62C5372.69 1292.15 5360.99 1295.55 5349.11 1298.88C5320.02 1214.37 5284.82 1131.82 5243.76 1051.78C5283.28 972.815 5317.1 891.458 5345 808.259C5366.28 814.057 5386.95 820.139 5406.84 826.586C5599.36 888.704 5716.81 980.664 5716.81 1051.34C5716.81 1126.75 5589.95 1224.63 5384.05 1288.62V1288.62Z" fill="#32384D"/>
<path d="M4765.5 1225.53C4802.38 1225.64 4838.48 1215.51 4869.2 1196.42C4899.93 1177.33 4923.91 1150.14 4938.11 1118.29C4952.31 1086.44 4956.08 1051.37 4948.96 1017.51C4941.84 983.652 4924.14 952.533 4898.1 928.092C4872.06 903.652 4838.85 886.99 4802.69 880.217C4766.52 873.443 4729.02 876.863 4694.93 890.042C4660.84 903.221 4631.7 925.568 4611.2 954.252C4590.69 982.936 4579.75 1016.67 4579.75 1051.18C4579.69 1074.04 4584.46 1096.68 4593.77 1117.82C4603.08 1138.96 4616.75 1158.17 4634 1174.37C4651.25 1190.56 4671.74 1203.41 4694.31 1212.19C4716.87 1220.97 4741.06 1225.5 4765.5 1225.53Z" fill="#32384D"/>
</g>
<defs>
<clipPath id="clip0_17_42">
<rect width="8391" height="1979" fill="white"/>
</clipPath>
<clipPath id="clip1_17_42">
<rect width="3290" height="1591" fill="white" transform="translate(0 179)"/>
</clipPath>
<clipPath id="clip2_17_42">
<rect width="1708" height="1688" fill="white" transform="translate(6374 179)"/>
</clipPath>
</defs>
</svg>
