<svg width="2859" height="2783" viewBox="0 0 2859 2783" fill="none" xmlns="http://www.w3.org/2000/svg">
<path d="M276.675 857.821C276.675 857.821 4.64258 828.575 4.64258 643.5C4.64258 463.953 93.6603 141.113 416.454 186C649.222 218.369 737.806 543.609 737.806 543.609L276.675 857.821ZM2582.33 857.821C2582.33 857.821 2800.5 869 2844.61 691.5C2888.71 514 2793.2 141.113 2470.4 186C2237.63 218.369 2121.2 543.609 2121.2 543.609L2582.33 857.821Z" fill="#6B676E"/>
<path d="M2859 1526.16C2859 2245.08 2218.99 2693.23 1429.49 2693.23C639.997 2693.23 0 2245.09 0 1526.16C0 807.233 792.814 179.547 1429.51 179.547C2066.2 179.547 2859 807.238 2859 1526.16Z" fill="#FFEBD2"/>
<path d="M922.262 2288.71C922.262 2511.83 1149.36 2692.69 1429.51 2692.69C1709.65 2692.69 1936.75 2511.83 1936.75 2288.71H922.262Z" fill="#E9D7C3"/>
<path d="M1798.41 1660.83C1660.07 1436.39 1567.84 1391.5 1429.51 1391.5C1291.17 1391.5 1198.94 1436.39 1060.6 1660.82C941.974 1853.28 835.693 2395 1023.26 2545C1207.71 2769.43 1397.78 2496 1443.89 2496C1490 2496 1648.97 2769.43 1833.42 2545C2043.73 2423.9 1917.03 1853.27 1798.41 1660.83Z" fill="white"/>
<path d="M1706.18 1346.61C1706.18 1222.66 1809.41 1122.18 1936.74 1122.18C2075.08 1122.18 2490.1 1391.51 2490.1 1571.05C2490.1 1750.6 2266.92 1964.87 2075.08 1840.37C1936.74 1750.6 1706.18 1436.39 1706.18 1346.61V1346.61ZM1152.82 1346.61C1152.82 1222.66 1049.59 1122.18 922.262 1122.18C783.924 1122.18 368.906 1391.51 368.906 1571.05C368.906 1750.6 592.081 1964.87 783.924 1840.37C922.262 1750.6 1152.82 1436.39 1152.82 1346.61V1346.61Z" fill="#6B676E"/>
<path d="M1429.51 1974.79C1345.58 1974.79 1106.71 1990.2 1106.71 2064.57C1106.71 2199.47 1401.22 2296.23 1429.51 2289C1457.78 2296.23 1752.3 2199.47 1752.3 2064.57C1752.29 1990.19 1513.43 1974.79 1429.51 1974.79Z" fill="#464655"/>
<path d="M759.552 1391C759.552 1402.93 773.004 1414.38 796.948 1422.82C820.891 1431.26 853.366 1436 887.228 1436C921.089 1436 953.564 1431.26 977.508 1422.82C1001.45 1414.38 1014.9 1402.93 1014.9 1391C1014.9 1379.07 1001.45 1367.62 977.508 1359.18C953.564 1350.74 921.089 1346 887.228 1346C853.366 1346 820.891 1350.74 796.948 1359.18C773.004 1367.62 759.552 1379.07 759.552 1391Z" fill="#464655"/>
<path d="M1844.1 1391C1844.1 1402.93 1857.5 1414.38 1881.36 1422.82C1905.21 1431.26 1937.57 1436 1971.31 1436C2005.05 1436 2037.4 1431.26 2061.26 1422.82C2085.12 1414.38 2098.52 1402.93 2098.52 1391C2098.52 1379.07 2085.12 1367.62 2061.26 1359.18C2037.4 1350.74 2005.05 1346 1971.31 1346C1937.57 1346 1905.21 1350.74 1881.36 1359.18C1857.5 1367.62 1844.1 1379.07 1844.1 1391Z" fill="#464655"/>
<path d="M2544.91 2297.37C2543.68 2307.84 2516.96 2320.57 2508.44 2326.82C2496.27 2335.75 2484.55 2348 2471.97 2355.41C2443.78 2372.03 2427.31 2404.55 2399.02 2420.25C2393.72 2423.19 2382.44 2431.29 2380.11 2436.25C2378.35 2439.98 2365.94 2450.9 2362.4 2452.81C2345.71 2461.81 2331.6 2471.14 2315.87 2480.84C2301.85 2489.48 2285 2495 2270.69 2502.5C2262.61 2506.73 2254.69 2509.56 2246.52 2513.97C2238.49 2518.3 2231.09 2524.95 2222.06 2526.85C2214.98 2528.33 2206.18 2535.54 2199.09 2538.88C2190.85 2542.77 2182.99 2546.54 2174.78 2550.21C2157.88 2557.76 2143.03 2568.61 2124.8 2572.43C2118.53 2573.74 2112.9 2578.66 2106.63 2580.78C2097.98 2583.72 2086.68 2587.06 2079.62 2592.39C2066.61 2602.21 2040.53 2604.2 2024.98 2608.39C2008.1 2612.94 1993.3 2620.64 1977.55 2628.07C1969.75 2631.74 1958.64 2627.82 1958.64 2637.55C1958.64 2647.19 1957.37 2654.26 1953.24 2663.03C1950.44 2668.96 1945.51 2682.33 1941.83 2686.67C1937.06 2692.3 1936.65 2701.16 1931.02 2707.06C1921.13 2717.42 1919.63 2732.79 1912.71 2745.85" stroke="#D8E9E1" stroke-linecap="round"/>
<path d="M2544.91 2305.02C2546.01 2314.32 2558.42 2322.35 2558.42 2331.77C2558.42 2337.41 2564.17 2351.05 2569.23 2353.43" stroke="#D8E9E1" stroke-linecap="round"/>
<path d="M154.786 176.391C154.615 175.47 154.708 174.583 154.852 173.676C154.884 173.478 154.986 173.192 154.957 172.993C154.919 172.738 153.816 172.99 153.661 173.012C152.664 173.149 153.927 172.125 154.217 171.901C154.989 171.305 155.874 170.66 156.751 170.221C157.337 169.928 157.83 169.347 158.459 169.172C159.129 168.986 159.685 168.636 160.187 168.171C160.756 167.644 161.337 167.115 161.881 166.572C162.265 166.187 162.621 165.704 163.053 165.371C163.774 164.816 164.309 163.787 165.165 163.406C165.498 163.259 165.945 162.73 166.318 163.103C166.629 163.414 166.705 163.879 167.001 164.175C167.207 164.381 167.352 164.611 167.557 164.816C168.392 165.652 169.587 166.023 170.437 166.842C170.736 167.13 171.017 167.417 171.339 167.678C171.658 167.936 171.806 168.287 172.084 168.565C172.403 168.884 171.73 168.779 171.429 168.779C170.502 168.779 169.73 168.344 168.795 168.361C168.053 168.375 167.419 168.72 166.707 168.788C165.914 168.864 165.248 169.421 164.477 169.562C164.359 169.583 164.253 169.718 164.14 169.718C163.882 169.718 164.127 169.218 164.164 169.153C164.633 168.308 165.232 167.614 166.014 167.061C166.773 166.523 167.46 165.782 168.283 165.371" stroke="#D8E9E1" stroke-width="5" stroke-linecap="round"/>
<path d="M33.8858 182.172C33.6181 182.44 33.4505 182.765 33.3092 183.047C33.2372 183.191 33.1038 183.352 32.9966 183.471C32.7422 183.754 32.8651 183.091 32.9758 182.961C33.1649 182.737 33.5732 182.509 33.5732 182.137C33.5732 182.021 33.4307 182.322 33.3717 182.422C33.2937 182.555 33.0975 182.765 32.9792 182.86C32.5287 183.22 32.1843 183.697 31.76 184.079C31.2451 184.543 30.7778 185.075 30.3567 185.611C29.8982 186.194 29.4511 186.827 28.9465 187.362C28.6495 187.676 28.3836 188.122 27.9844 188.299C27.7132 188.42 27.4546 188.826 27.2445 189.036C26.7291 189.551 26.3425 190.216 25.8204 190.738C25.4947 191.063 25.1192 191.35 24.8547 191.735C24.6729 191.999 24.3198 192.197 24.3198 192.551" stroke="#D8E9E1" stroke-linecap="round"/>
<path d="M45.1997 178.442C45.403 180.272 48.5505 179.984 49.4887 180.922C49.9119 181.345 50.7289 181.552 51.3385 181.552C51.9906 181.552 52.6801 181.989 53.3509 182.111C54.1437 182.256 54.8212 182.791 55.6275 182.833C56.3096 182.869 57.3113 183.298 57.9651 183.524C59.8148 184.164 61.3677 185.333 63.1282 186.167C66.5209 187.774 70.6797 187.955 74.3793 187.955C74.9885 187.955 75.553 187.804 76.1173 187.773C76.4628 187.753 77.3979 187.128 77.3979 186.858C77.3979 186.234 76.3061 186.331 75.9343 186.309C75.4254 186.279 74.8088 185.606 74.2878 185.577C73.1397 185.513 71.7979 184.983 70.7102 184.673C69.6495 184.37 68.5729 184.114 67.4274 184.114C66.0397 184.114 64.8134 183.887 63.4941 183.748C62.8875 183.684 62.2037 183.479 61.6647 183.24C61.2478 183.054 60.492 182.676 60.0182 182.65C58.8377 182.585 57.7279 182.109 56.6235 181.908C55.897 181.776 55.4256 181.158 54.6315 181.014C54.0608 180.91 53.5527 180.455 52.9748 180.455C51.9828 180.455 50.9954 179.598 49.9563 179.54C48.7625 179.474 47.9118 178.798 46.8462 178.442" stroke="#D8E9E1" stroke-linecap="round"/>
<path d="M78.6907 186.225C78.7634 186.716 78.783 187.226 78.9388 187.694C79.018 187.931 79.0516 188.123 79.0516 188.371C79.0516 188.577 79.0511 188.76 79.0943 188.955C79.1325 189.127 79.2369 189.235 79.2747 189.406C79.2997 189.518 78.779 189.474 78.6907 189.474C78.4884 189.474 78.3099 189.511 78.1141 189.519C77.8955 189.527 77.7292 189.687 77.5175 189.699C77.3406 189.709 77.1561 189.78 76.9761 189.789C76.8119 189.798 76.6607 189.887 76.5023 189.922C76.3259 189.961 76.1393 189.978 75.9609 190.017C75.6403 190.089 75.2665 190.241 74.9457 190.241C74.4387 190.241 73.9068 190.366 73.4116 190.476C72.8765 190.595 72.3195 190.605 71.7872 190.727C71.5544 190.78 71.2964 190.74 71.0653 190.805C70.8309 190.87 70.5876 190.897 70.3384 190.92C69.7932 190.969 69.23 191.093 68.694 191.191C67.5807 191.393 66.4083 191.549 65.2598 191.549C64.5874 191.549 63.9615 191.695 63.3021 191.777C62.9813 191.817 62.6585 191.925 62.3395 191.953C62.1206 191.972 61.9107 191.988 61.7028 192.068C61.1907 192.265 60.6013 192.274 60.0659 192.371C59.4974 192.475 58.9236 192.587 58.3413 192.587" stroke="#D8E9E1" stroke-linecap="round"/>
<path d="M39.3911 175.757C39.8692 175.358 40.5486 175.166 41.1283 175.037C41.3811 174.981 41.4373 175.179 41.6246 175.283C41.803 175.382 42.1283 175.488 42.2437 175.667C42.364 175.852 42.7744 175.993 42.9657 176.118C43.0721 176.187 43.1894 176.25 43.2965 176.318C43.5162 176.458 43.4669 176.432 43.269 176.321C42.9379 176.135 42.6552 175.862 42.3916 175.599C42.3225 175.53 42.1799 175.43 42.1334 175.351C42.081 175.262 41.8532 175.209 42.0081 175.261" stroke="#D8E9E1" stroke-linecap="round"/>
<path d="M41.8726 175.26C42.1405 175.26 42.4268 175.418 42.5544 175.642C42.6611 175.828 43.0874 175.911 43.2713 176.002C43.8118 176.273 44.3151 176.582 44.8505 176.85C45.1319 176.99 45.4539 177.061 45.7479 177.176C46.0217 177.282 46.2521 177.466 46.545 177.519C46.7188 177.551 46.906 177.687 47.084 177.742C47.2155 177.783 47.3091 177.884 47.4274 177.943C47.6742 178.066 47.9689 178.163 48.2346 178.238C48.5307 178.323 48.8537 178.52 49.137 178.655C49.4172 178.787 49.7388 178.895 50.0294 178.995C50.2541 179.073 50.5103 179.283 50.7438 179.319C51.133 179.379 51.4836 179.525 51.8643 179.595C52.0934 179.636 52.4249 179.766 52.6112 179.898C52.9361 180.127 53.3904 180.139 53.7393 180.304C54.3299 180.584 54.9868 180.769 55.5992 181.001C55.962 181.138 56.3472 181.233 56.6896 181.417C56.9807 181.574 57.3248 181.651 57.5946 181.823C57.7121 181.898 57.9319 181.942 58.0708 181.973C58.252 182.015 58.4234 182.108 58.6023 182.174C58.8871 182.279 59.1687 182.39 59.4696 182.47C59.8215 182.563 60.2272 182.632 60.555 182.776C60.8497 182.905 61.1166 182.922 61.4273 182.976C61.5448 182.997 61.7882 183.036 61.8835 183.089C62.0145 183.162 62.1716 183.14 62.3122 183.179C62.4834 183.227 62.6756 183.292 62.8536 183.292C63.1998 183.292 63.5067 183.531 63.8663 183.565C64.1953 183.597 64.5281 183.724 64.859 183.743C65.1542 183.761 65.5284 183.83 65.7864 183.959C65.9112 184.021 66.0597 183.996 66.19 184.036C66.3014 184.071 66.5128 184.149 66.6212 184.149C66.7219 184.149 66.9463 184.218 67.0323 184.265C67.1974 184.353 67.3917 184.32 67.5687 184.375C67.9563 184.494 68.3851 184.608 68.7644 184.746C69.2608 184.926 69.8225 185.004 70.2985 185.242C70.5613 185.374 70.8341 185.527 71.1107 185.628C71.405 185.736 71.698 185.721 71.968 185.864C72.1979 185.986 72.4629 186.057 72.7099 186.135C72.9446 186.208 73.2359 186.206 72.8253 186.36" stroke="#D8E9E1" stroke-linecap="round"/>
<path d="M48.5954 180.088C49.0707 180.242 49.5273 180.352 50.0267 180.399C50.4806 180.442 50.9801 180.403 51.4179 180.55C51.679 180.637 51.8751 180.828 52.0822 181.001C52.4536 181.31 52.8326 181.554 53.2528 181.793C53.8616 182.139 54.4767 182.534 55.1479 182.75C55.1914 182.765 55.4099 182.869 55.2532 182.781C54.8501 182.554 54.4675 182.292 54.0625 182.066C53.6172 181.818 53.1759 181.572 52.7565 181.282C52.6628 181.217 52.5301 181.166 52.4532 181.081C52.3694 180.988 52.1559 180.86 52.4331 180.931C53.0352 181.085 53.56 181.125 54.0775 181.485C54.3544 181.677 54.6551 181.861 54.9423 182.039C56.0785 182.741 57.3027 183.132 58.6222 183.302C59.4078 183.403 60.1952 183.379 60.9785 183.472C61.6443 183.552 62.2828 183.742 62.9387 183.873C63.6034 184.006 64.2793 184.066 64.9415 184.214C65.2401 184.281 65.5196 184.371 65.8214 184.43C66.5773 184.578 67.4658 184.62 68.1752 184.939C68.4333 185.055 68.5778 185.126 68.8745 185.144C69.2304 185.166 69.5772 185.32 69.9173 185.415C70.4986 185.578 71.0522 185.766 71.6269 185.954C71.9265 186.052 72.2492 186.073 72.5393 186.2C72.8347 186.329 73.0607 186.403 73.3716 186.473C74.0317 186.621 74.7251 186.922 75.407 186.947C75.6643 186.956 76.0891 186.938 76.2242 187.242C76.2378 187.273 75.9594 187.263 75.9535 187.263C75.7676 187.263 75.5703 187.281 75.3869 187.242C74.8532 187.13 74.3752 187.052 73.8228 187.014C72.8258 186.947 71.8351 186.861 70.8398 186.776C70.4026 186.739 70.0571 186.645 69.6466 186.485C69.3039 186.353 68.944 186.28 68.5913 186.18C68.2283 186.076 67.8953 185.915 67.5385 185.801C66.7154 185.538 65.8946 185.387 65.0493 185.252C64.5049 185.166 63.9828 185.019 63.4526 184.871C62.7141 184.666 61.9793 184.518 61.2592 184.249C61.0544 184.173 60.7343 184.046 60.5072 184.059C60.4317 184.063 61.0719 185.074 61.194 185.187C61.632 185.592 62.1429 185.609 62.7081 185.658C63.4418 185.722 64.1537 185.819 64.8839 185.909C65.5271 185.988 66.3131 185.873 66.9143 186.155C67.3243 186.346 67.7136 186.588 68.0774 186.856C68.3842 187.082 68.6237 187.345 68.9899 187.478C69.0157 187.487 69.3001 187.556 69.1728 187.521C68.378 187.3 67.5804 187.136 66.7589 187.049C66.2351 186.994 65.5847 186.912 65.0518 186.994C64.9864 187.004 65.128 187.113 65.1897 187.137C65.7613 187.359 66.4221 187.351 67.0246 187.353C67.773 187.356 68.4247 187.198 69.1453 187.037C69.2812 187.007 70.0151 186.876 69.98 186.648C69.9461 186.428 69.6387 186.1 69.4335 186.029C69.3737 186.009 68.7177 185.983 68.7367 186.037C68.8921 186.477 69.6523 186.743 70.0502 186.834C70.5353 186.945 71.1131 187.089 71.6119 187.037C71.6808 187.03 71.5013 186.952 71.4389 186.922C71.1235 186.769 70.7583 186.745 70.4137 186.731C69.9028 186.711 69.3806 186.706 69.3107 187.3C69.2479 187.834 70.1145 187.754 70.4688 187.754C70.7122 187.754 70.7832 187.743 70.8298 187.533C70.8344 187.513 70.8199 187.494 70.7997 187.488C70.4931 187.4 70.0691 187.415 69.7694 187.408C68.4416 187.379 67.1294 187.517 65.8064 187.593C65.2699 187.624 64.9594 187.592 64.5154 187.303C64.1097 187.038 63.6985 186.801 63.2595 186.596C62.447 186.215 61.5977 185.909 60.7879 185.528C60.5066 185.396 60.2639 185.203 59.9958 185.049C59.595 184.818 59.1589 184.645 58.7475 184.432C58.3036 184.204 57.8403 184.004 57.4139 183.743C57.0956 183.548 56.8105 183.296 56.4814 183.119C56.1328 182.931 55.7491 182.859 55.3584 182.831C54.8163 182.791 54.2834 182.726 53.7441 182.66C52.9701 182.566 52.1912 182.603 51.4179 182.515C50.6428 182.427 49.8035 182.292 49.0566 182.071C48.8906 182.022 48.7388 181.925 48.5653 181.903C48.4189 181.885 48.2717 181.902 48.1266 181.871C47.7473 181.788 48.6044 182.158 48.6706 182.181C48.9623 182.284 49.2789 182.29 49.568 182.39C49.8465 182.485 49.1135 182.883 49.0817 182.901C48.7653 183.079 48.2846 183.341 47.9035 183.322C47.8053 183.317 47.9735 183.13 48.0464 183.064C48.2926 182.841 48.5552 182.636 48.8109 182.425C49.0407 182.235 49.2216 182.142 49.2271 181.853C49.23 181.699 49.2573 181.554 49.2922 181.404C49.305 181.35 49.2422 181.211 49.2922 181.236C49.4114 181.296 49.5001 181.423 49.6181 181.49C50.0929 181.759 50.6978 181.865 51.2124 182.034C52.0615 182.311 52.9213 182.577 53.7166 182.991C54.4746 183.386 55.1059 183.967 55.8823 184.327C56.4425 184.587 57.0386 184.759 57.5944 185.027C58.1427 185.291 58.6721 185.588 59.2614 185.756C59.5283 185.832 59.6886 185.857 59.9582 185.901C60.121 185.928 60.5637 186.096 60.447 185.979C60.3842 185.916 60.2767 185.928 60.1913 185.904C59.8369 185.802 59.4812 185.706 59.1235 185.616C57.9104 185.31 56.6428 185.06 55.4913 184.555C55.2425 184.446 55.0195 184.293 54.812 184.119C54.1739 183.583 53.5387 183.049 52.8868 182.53C52.5799 182.285 52.2699 182.04 52.0095 181.745C51.9436 181.671 51.858 181.628 51.7638 181.597C51.3848 181.475 51.117 181.367 50.711 181.327C50.4454 181.3 50.1842 181.294 49.969 181.171C49.9006 181.132 50.1283 181.172 50.2047 181.191C50.9389 181.379 51.7024 181.507 52.4206 181.748C53.3471 182.059 54.3357 182.534 55.0576 183.212C55.2739 183.415 55.508 183.624 55.8147 183.653C55.8624 183.657 55.9143 183.712 55.9575 183.731C56.3981 183.923 56.8623 184.061 57.3187 184.209C57.4358 184.247 57.5558 184.278 57.6696 184.325C57.8104 184.383 57.3707 184.265 57.2209 184.237C56.686 184.137 56.272 183.981 55.8297 183.663C55.5681 183.475 55.4909 183.382 55.183 183.382C54.4661 183.382 53.7491 183.382 53.0322 183.382C52.4833 183.382 51.9343 183.382 51.3853 183.382C51.2952 183.382 51.0771 183.356 50.9717 183.392C50.76 183.465 50.6692 183.869 50.5506 184.034C50.2975 184.386 49.881 184.597 49.5028 184.791C49.4053 184.841 49.0301 185.122 48.9212 185.002C48.6545 184.707 48.9001 183.891 48.9939 183.588C49.0539 183.394 49.2253 182.793 49.4878 182.725C49.5311 182.714 49.5822 182.757 49.5855 182.796C49.6273 183.276 49.4343 183.817 49.2321 184.247C49.1999 184.315 49.4387 184.054 49.4577 184.039C49.8392 183.734 50.274 183.483 50.6208 183.137C50.7674 182.99 50.2645 183.357 50.0668 183.42C49.9451 183.458 49.7021 183.453 49.598 183.528C49.5539 183.559 49.6743 183.621 49.7284 183.625C50.6906 183.706 51.6738 183.299 52.5785 183.039C53.0857 182.893 53.7578 182.649 54.3006 182.781C54.4669 182.821 54.5954 182.989 54.7518 183.061C55.0429 183.196 54.9067 183.161 54.5713 183.227C53.1206 183.51 51.6886 183.86 50.2147 184.009C50.1812 184.012 49.3012 183.987 49.2346 184.087C49.205 184.131 49.2068 184.221 49.1819 184.275C49.0989 184.453 49.7288 184.495 49.7359 184.495C50.8722 184.6 52.0503 184.404 53.1475 184.119C53.6785 183.981 55.2499 183.493 54.7318 183.673C54.1355 183.88 53.5367 184.1 52.9269 184.265C52.0833 184.492 51.2503 184.582 50.3801 184.6C50.0984 184.606 48.9464 184.498 48.7633 184.846C48.6742 185.015 50.543 185.043 50.5706 185.042C52.2282 184.93 53.8549 184.424 55.4763 184.092C55.5187 184.083 57.0006 183.762 56.1205 183.959C54.7576 184.263 53.4043 184.592 52.0295 184.841C51.1953 184.993 50.3503 185.107 49.5228 185.295C49.4811 185.304 49.3821 185.361 49.4226 185.375C49.873 185.53 50.4804 185.537 50.9416 185.553C52.578 185.61 54.1698 185.306 55.7745 185.034C55.8074 185.029 56.719 184.868 56.6519 184.884C54.0855 185.476 51.4361 185.798 48.8084 186.002C46.9976 186.142 49.0896 185.972 47.9862 186.047C47.8532 186.056 47.7362 186.088 47.9436 186.155C48.1401 186.218 48.4652 186.269 48.6505 186.275C49.8082 186.313 50.9784 186.091 52.1073 185.871C53.7632 185.549 55.3862 185.043 57.053 184.781C57.1881 184.76 57.3165 184.71 57.1131 184.746C56.451 184.864 55.8056 185.004 55.1328 185.067C53.296 185.237 51.4341 185.253 49.6432 185.749C49.5443 185.776 48.8671 185.908 49.207 186.117C49.8794 186.53 51.0119 186.356 51.7237 186.285C53.7698 186.079 55.7578 185.557 57.7699 185.159C57.9131 185.131 58.0575 185.109 58.201 185.082C58.2596 185.071 58.4204 185.042 58.196 185.052C57.4744 185.083 56.7542 185.224 56.0453 185.347C53.7953 185.738 51.5465 186.136 49.2972 186.531C48.5882 186.655 47.882 186.776 47.1666 186.854C47.0966 186.862 47.0015 186.854 47.0161 186.947C47.0647 187.254 48.5346 187.085 48.5753 187.082C51.0355 186.918 53.4473 186.381 55.8472 185.846C56.7641 185.642 59.4919 184.985 58.6171 185.327C58.4601 185.389 57.9808 185.5 57.8802 185.523C56.9129 185.742 55.938 185.93 54.9674 186.135C53.6154 186.419 52.2694 186.718 50.9015 186.917C50.4525 186.982 50.0423 187.044 49.6281 187.24C49.5517 187.276 49.368 187.364 49.2922 187.433C49.187 187.529 49.523 187.62 49.6632 187.644C51.4656 187.944 53.3741 187.639 55.1479 187.31C56.8957 186.986 58.6272 186.57 60.3593 186.172C60.402 186.162 60.5289 186.135 60.4896 186.155C60.1633 186.318 59.6863 186.404 59.3491 186.48C57.202 186.968 55.005 187.262 52.8192 187.508C51.9238 187.609 51.0372 187.67 50.1395 187.714C49.9297 187.724 49.3214 187.845 49.2571 188.11C49.2474 188.15 49.3222 188.166 49.3624 188.175C49.7538 188.263 50.191 188.263 50.5857 188.245C52.6976 188.149 54.8137 187.436 56.8173 186.816C57.359 186.649 57.9634 186.45 58.4968 186.23C58.6129 186.182 58.7252 186.125 58.8377 186.069C58.9304 186.023 59.0984 186.005 59.0984 185.901C59.0984 185.718 56.2357 186.224 56.1957 186.232C54.8807 186.495 53.5901 186.848 52.2852 187.152C52.2496 187.161 52.1587 187.21 52.195 187.215C52.2677 187.225 52.3855 187.204 52.4356 187.197C53.1743 187.101 53.9099 186.959 54.6365 186.796C56.0575 186.479 57.456 186.067 58.8427 185.626C58.9032 185.606 59.0842 185.558 59.0207 185.558C58.8229 185.558 58.5489 185.67 58.3765 185.728C57.5951 185.991 56.8388 186.322 56.0578 186.586C56.0363 186.593 55.7245 186.687 55.94 186.711C56.8256 186.811 57.7827 186.594 58.6522 186.47C59.288 186.38 59.9276 186.263 60.5699 186.227C60.6859 186.221 60.7054 186.257 60.6175 186.355C60.4708 186.519 60.2842 186.638 60.0911 186.739C59.9123 186.832 60.703 186.789 60.7428 186.786C60.931 186.775 61.1165 186.761 61.3043 186.746C61.339 186.743 61.7042 186.686 61.4297 186.771C60.9438 186.922 60.4149 187.057 59.9607 187.29C59.6455 187.452 60.6755 187.324 61.0236 187.258C61.3856 187.188 61.7788 187.074 62.0413 186.811" stroke="#D8E9E1" stroke-linecap="round"/>
<path d="M76.2091 188.751C76.1913 189.091 75.9115 189.221 75.6226 189.328C75.2744 189.457 74.8944 189.529 74.5397 189.654C73.6544 189.965 72.7011 190.042 71.7823 190.263C70.8722 190.482 69.971 190.73 69.0626 190.96C68.4773 191.108 67.8512 191.278 67.2452 191.278C66.7489 191.278 66.2525 191.278 65.7562 191.278C65.5206 191.278 65.285 191.278 65.0493 191.278C65.0428 191.278 64.9473 191.285 64.9867 191.268C65.3133 191.131 65.6526 191.014 65.9818 190.882C67.2154 190.387 68.4895 190.001 69.777 189.674C70.5015 189.49 71.2295 189.403 71.9603 189.26C72.5832 189.138 73.1869 188.973 73.7977 188.807C73.9072 188.777 74.2471 188.751 74.1336 188.751C74.0097 188.751 73.8344 188.803 73.7275 188.832C73.0969 189.002 72.4795 189.22 71.8525 189.403C70.343 189.844 68.8115 190.004 67.2652 190.255C66.9899 190.3 66.7165 190.356 66.4431 190.411C66.3949 190.421 66.2029 190.43 66.1573 190.476C66.1077 190.526 66.2475 190.588 66.2626 190.591C66.6754 190.696 67.1838 190.613 67.5911 190.541C68.1288 190.447 68.6479 190.277 69.1728 190.133C69.8203 189.954 70.4836 189.824 71.1205 189.609C71.3828 189.52 71.6459 189.414 71.8876 189.278C72.2041 189.099 71.68 189.266 71.657 189.273C70.7036 189.555 69.7614 189.875 68.7993 190.128C67.7489 190.404 66.6877 190.617 65.6434 190.92C64.7612 191.176 63.8779 191.429 62.9788 191.619C62.911 191.633 62.7095 191.683 62.7783 191.674C63.0876 191.634 63.3978 191.506 63.6882 191.401C64.4537 191.125 65.1698 190.822 65.9818 190.712C66.313 190.667 66.0572 190.737 65.9217 190.782" stroke="#D8E9E1" stroke-linecap="round"/>
<path d="M123.908 189.783C123.908 190.181 124.334 190.495 123.84 190.646C123.762 190.67 122.182 191.115 122.182 191.265C122.182 191.304 123.256 191.01 123.448 191.01C123.697 191.01 124.007 190.811 124.112 190.601" stroke="#FFEBD2" stroke-linecap="round"/>
<path d="M121.762 191.725C122.54 191.087 123.301 190.703 124.316 190.703" stroke="#FFEBD2" stroke-linecap="round"/>
</svg>
