<svg width="323" height="130" viewBox="0 0 323 130" fill="none" xmlns="http://www.w3.org/2000/svg">
<g clip-path="url(#clip0_15_13)">
<path d="M166.759 43.059L182.126 41.9825C182.476 44.7053 183.119 46.7316 184.171 48.188C185.865 50.4676 188.202 51.6074 191.299 51.6074C193.578 51.6074 195.389 51.0375 196.616 49.8344C197.785 48.8846 198.486 47.3648 198.486 45.7818C198.486 44.2621 197.843 42.8057 196.733 41.8558C195.565 40.716 192.818 39.5762 188.495 38.5631C181.425 36.8534 176.341 34.5738 173.361 31.661C170.381 28.9382 168.687 24.9489 168.804 20.7063C168.804 17.7935 169.622 14.8807 171.141 12.4744C172.894 9.75159 175.289 7.59865 178.152 6.39553C181.249 4.93912 185.573 4.17926 191.007 4.17926C197.668 4.17926 202.751 5.50902 206.257 8.23187C209.763 10.8914 211.867 15.1973 212.509 21.0862L197.317 22.0361C196.908 19.5032 196.09 17.6668 194.747 16.4637C193.403 15.2606 191.65 14.6907 189.371 14.6907C187.501 14.6907 186.099 15.134 185.164 15.9571C184.288 16.717 183.703 17.8568 183.762 19.1232C183.762 20.0731 184.229 20.9596 184.93 21.5295C185.69 22.2893 187.501 22.9859 190.364 23.6191C197.434 25.2655 202.459 26.9118 205.556 28.6215C208.653 30.3312 210.873 32.4209 212.217 34.8904C213.619 37.4233 214.321 40.3361 214.262 43.3122C214.262 46.8583 213.327 50.4043 211.457 53.3804C209.529 56.4832 206.842 58.8894 203.686 60.3459C200.356 61.9289 196.149 62.7521 191.124 62.7521C182.243 62.7521 176.107 60.9158 172.66 57.1798C169.213 53.4438 167.168 48.7579 166.759 43.059ZM3.68108 61.8023V5.19241H30.6172C35.5838 5.19241 39.4401 5.63567 42.0695 6.5855C44.6404 7.472 46.9191 9.30834 48.4383 11.7779C50.1328 14.5007 50.9508 17.6668 50.8924 20.9596C51.0677 26.5319 48.4383 31.851 43.9392 34.6371C42.1863 35.7136 40.2581 36.4735 38.2715 36.8534C39.7323 37.2967 41.193 38.0565 42.4785 38.943C43.4718 39.8295 44.2898 40.8427 45.0494 41.9192C45.9258 42.9956 46.6854 44.1987 47.3281 45.4652L55.1577 61.8656H36.8108L28.1632 44.452C27.053 42.2358 26.1181 40.7794 25.2417 40.0828C24.0731 39.1963 22.6708 38.7531 21.2685 38.7531H19.8661V61.7389H3.68108V61.8023ZM19.8661 28.115H26.7024C28.1632 27.9883 29.5655 27.735 30.9678 27.3551C32.0195 27.1651 32.9544 26.5319 33.5971 25.5821C35.1747 23.3025 34.941 20.0731 33.0128 18.1101C31.9611 17.1603 29.9161 16.6537 26.9946 16.6537H19.8661V28.115ZM0 110.307L15.367 109.23C15.7176 111.953 16.3603 113.98 17.4121 115.436C19.0481 117.716 21.4437 118.919 24.5405 118.919C26.8193 118.919 28.6306 118.349 29.8576 117.146C31.0262 116.133 31.7274 114.676 31.7274 113.093C31.7274 111.573 31.0847 110.117 29.9745 109.167C28.8059 108.027 26.0597 106.887 21.6775 105.874C14.6075 104.165 9.52406 101.885 6.54414 98.9723C3.56422 96.2494 1.86975 92.2601 1.98661 88.0175C1.98661 85.1047 2.80463 82.1919 4.32381 79.7857C6.0767 77.0629 8.47232 74.9099 11.3354 73.7068C14.4322 72.2504 18.756 71.4905 24.1899 71.4905C30.8509 71.4905 35.9343 72.8203 39.4401 75.5431C42.9459 78.266 44.991 82.5085 45.6337 88.3975L30.4419 89.3473C30.0329 86.8144 29.2149 84.9781 27.871 83.775C26.5856 82.5719 24.7742 82.002 22.4955 82.0653C20.6257 82.0653 19.2234 82.5085 18.2885 83.395C17.3537 84.1549 16.8278 85.2947 16.8862 86.5611C16.8862 87.511 17.3537 88.3975 18.0548 88.9674C18.8144 89.7272 20.6257 90.4238 23.4888 91.057C30.5588 92.7034 35.5838 94.3497 38.6805 96.0594C41.7773 97.7691 43.9976 99.8588 45.3415 102.328C46.7438 104.861 47.445 107.774 47.445 110.687C47.445 114.233 46.4517 117.716 44.6404 120.692C42.7122 123.794 40.0244 126.201 36.8692 127.657C33.5387 129.24 29.3318 130.063 24.3068 130.063C15.4255 130.063 9.29034 128.227 5.84298 124.491C2.39562 120.692 0.467439 116.006 0 110.307H0Z" fill="white"/>
<path d="M77.7116 105.874L91.8516 110.497C91.0921 114.359 89.5144 118.032 87.3525 121.262C85.3659 124.111 82.7366 126.327 79.7567 127.784C76.7183 129.24 72.8619 130 68.1876 130C62.5199 130 57.8455 129.113 54.2813 127.34C50.6586 125.567 47.5618 122.401 44.9325 117.905C42.3032 113.41 41.0177 107.647 41.0177 100.619C41.0177 91.2469 43.2965 84.0282 47.9124 79.0258C52.5284 74.0234 59.0141 71.4905 67.428 71.4905C74.0305 71.4905 79.1724 72.9469 82.9703 75.7964C86.7098 78.7092 89.5144 83.1417 91.3842 89.094L77.1273 92.5134C76.7767 91.1836 76.2509 89.8539 75.5497 88.7141C74.6733 87.3843 73.5631 86.3711 72.2192 85.6113C70.8753 84.8514 69.3562 84.5348 67.837 84.5348C64.1559 84.5348 61.3513 86.1179 59.4231 89.3473C57.9623 91.6902 57.2028 95.4262 57.2028 100.492C57.2028 106.761 58.0792 111.067 59.8321 113.41C61.585 115.753 64.039 116.892 67.2527 116.892C70.3495 116.892 72.6867 115.942 74.2643 114.106C75.8419 112.143 77.0105 109.42 77.7116 105.874ZM110.724 72.4403H126.851V92.2601H144.497V72.4403H160.74V129.05H144.497V106.128H126.851V129.05H110.724V72.4403V72.4403Z" fill="white"/>
<path d="M158.52 100.745C158.52 91.5002 160.916 84.2815 165.649 79.1524C170.381 74.0233 177.042 71.4271 185.515 71.4271C194.221 71.4271 200.882 73.96 205.615 79.0258C210.347 84.0915 212.685 91.1836 212.685 100.302C212.685 106.951 211.633 112.333 209.588 116.576C207.601 120.755 204.504 124.174 200.706 126.454C196.792 128.797 191.942 130 186.157 130C180.256 130 175.406 128.987 171.55 126.96C167.577 124.808 164.305 121.451 162.143 117.336C159.747 112.903 158.52 107.394 158.52 100.745ZM174.647 100.809C174.647 106.507 175.64 110.623 177.568 113.156C179.496 115.626 182.184 116.892 185.573 116.892C189.02 116.892 191.708 115.689 193.636 113.22C195.565 110.75 196.499 106.381 196.499 100.049C196.499 94.7296 195.506 90.8036 193.52 88.3974C191.533 85.9279 188.845 84.7247 185.456 84.7247C182.476 84.5981 179.613 85.9912 177.627 88.4607C175.64 90.9303 174.647 95.0462 174.647 100.809V100.809ZM229.22 100.745C229.22 91.5002 231.616 84.2815 236.349 79.1524C241.081 74.0233 247.742 71.4271 256.215 71.4271C264.921 71.4271 271.64 73.96 276.315 79.0258C280.989 84.0915 283.385 91.1836 283.385 100.302C283.385 106.951 282.333 112.333 280.288 116.576C278.301 120.755 275.204 124.174 271.406 126.454C267.492 128.797 262.642 130 256.857 130C250.956 130 246.106 128.987 242.25 126.96C238.277 124.808 235.005 121.451 232.843 117.336C230.447 112.903 229.22 107.394 229.22 100.745V100.745ZM245.347 100.809C245.347 106.507 246.34 110.623 248.268 113.156C250.196 115.626 252.884 116.892 256.273 116.892C259.721 116.892 262.408 115.689 264.336 113.22C266.265 110.75 267.2 106.381 267.2 100.049C267.2 94.7296 266.206 90.8036 264.22 88.3974C262.233 85.9279 259.545 84.7247 256.156 84.7247C253.176 84.5981 250.255 85.9912 248.327 88.4607C246.34 90.9303 245.347 95.0462 245.347 100.809V100.809Z" fill="white"/>
<path d="M281.69 72.4403H297.817V115.119H323V129.05H281.632V72.4403H281.69Z" fill="white"/>
<path d="M263.915 69.1733C280.151 55.9137 285.158 33.4365 275.098 18.9691C265.038 4.50176 243.72 3.52267 227.484 16.7823C211.248 30.0419 206.242 52.5191 216.302 66.9865C226.362 81.4539 247.679 82.4329 263.915 69.1733Z" fill="white"/>
<path d="M228.584 39.3371L234.427 34.9045L241.614 45.9859C242.841 47.7589 243.776 49.6585 244.477 51.7482C244.886 53.3312 244.769 55.0409 244.185 56.5606C243.425 58.4603 242.198 60.0434 240.562 61.1831C238.634 62.6396 236.998 63.4627 235.596 63.716C234.252 63.9693 232.85 63.716 231.564 63.0828C230.162 62.3229 228.935 61.2465 228 59.8534L233.025 54.7876C233.434 55.4842 233.96 56.1174 234.544 56.624C234.953 56.9406 235.421 57.1305 235.946 57.1305C236.355 57.1305 236.764 56.9406 237.057 56.6873C237.641 56.3074 238.05 55.5475 237.992 54.7876C237.816 53.7112 237.407 52.6347 236.764 51.8115L228.584 39.3371V39.3371ZM246.113 46.3658L251.43 41.8066C252.015 42.5665 252.774 43.1364 253.592 43.453C254.761 43.8329 255.988 43.5796 256.981 42.7565C257.682 42.2499 258.267 41.5533 258.5 40.6668C258.851 39.527 258.267 38.2606 257.215 37.8807C257.04 37.8173 256.864 37.754 256.689 37.754C255.988 37.6907 254.761 38.0073 252.95 38.8305C249.97 40.1603 247.632 40.6668 245.88 40.4769C244.185 40.2869 242.607 39.3371 241.673 37.754C240.971 36.6775 240.621 35.4111 240.562 34.1447C240.562 32.6883 240.913 31.2319 241.673 30.0287C242.783 28.319 244.127 26.8626 245.763 25.7228C248.217 23.8865 250.379 23 252.248 23C254.118 23 255.871 23.9498 257.507 25.9128L252.248 30.4087C251.197 28.9523 249.21 28.6357 247.866 29.7755L247.691 29.9654C247.107 30.3453 246.698 30.9152 246.464 31.6118C246.289 32.1184 246.405 32.6883 246.698 33.1315C246.931 33.4481 247.282 33.7014 247.691 33.7014C248.158 33.7647 248.976 33.5114 250.145 32.9415C253.066 31.6118 255.287 30.8519 256.806 30.5986C258.091 30.3453 259.435 30.472 260.662 31.0419C261.772 31.5485 262.707 32.435 263.35 33.5114C264.168 34.7779 264.636 36.2976 264.694 37.8807C264.752 39.527 264.343 41.1101 263.525 42.5032C262.474 44.2129 261.13 45.6693 259.552 46.8091C256.338 49.2153 253.709 50.2284 251.606 49.8485C249.327 49.4686 247.457 48.2021 246.113 46.3658V46.3658Z" fill="black"/>
</g>
<defs>
<clipPath id="clip0_15_13">
<rect width="323" height="130" fill="white"/>
</clipPath>
</defs>
</svg>
